<svg xmlns="http://www.w3.org/2000/svg" width="80" height="80" viewBox="0 0 80 80"><path fill="#87DB75" d="M70.004 30L80 20 60.008 0l-9.995 10-9.996-10-9.996 10-9.994-10-.01.01V0L0 20l9.997 10L0 40l9.996 10L0 59.998l19.992 20L29.988 70l9.995 9.998 9.996-10 .033.034v.002L59.973 80l.013-.012v.01l20.014-20L70.004 50 80 40l-9.996-10zm-21.932-1.366h-3.81c-1.346 0-1.626.55-1.626 1.943v3.366h5.436l-.52 5.906h-4.916V57.5h-7.044V39.925h-3.665v-5.98h3.665V29.23c0-4.42 2.363-6.73 7.604-6.73h4.876v6.134z"/></svg>