<?xml version="1.0" encoding="utf-8"?>
<!-- Generator: Adobe Illustrator 16.0.0, SVG Export Plug-In . SVG Version: 6.00 Build 0)  -->
<!DOCTYPE svg PUBLIC "-//W3C//DTD SVG 1.1//EN" "http://www.w3.org/Graphics/SVG/1.1/DTD/svg11.dtd">
<svg version="1.1" id="Layer_1" xmlns="http://www.w3.org/2000/svg" xmlns:xlink="http://www.w3.org/1999/xlink" x="0px" y="0px"
	 width="80px" height="80px" viewBox="0 0 80 80" enable-background="new 0 0 80 80" xml:space="preserve">
<g>
	<g>
		<path fill="#87DB75" d="M70.004,30L80,20L60.008,0l-9.995,10L40.017,0l-9.996,10L20.026,0l-0.011,0.01V0L0.001,20l9.996,10
			L0.001,40l9.995,10H9.995L0,59.998l19.992,20L29.988,70l9.995,9.998l9.996-10l0.034,0.034v0.002L59.974,80l0.012-0.012v0.01
			l20.014-20L70.004,50L80,40L70.004,30z M48.072,28.634c0,0-2.724,0-3.81,0c-1.346,0-1.626,0.55-1.626,1.943
			c0,1.16,0,3.366,0,3.366h5.436l-0.521,5.906h-4.915V57.5h-7.044V39.925h-3.665v-5.981h3.665c0,0,0-0.861,0-4.713
			c0-4.422,2.363-6.73,7.604-6.73c0.861,0,4.876,0,4.876,0V28.634z"/>
	</g>
</g>
</svg>
