<?xml version="1.0" encoding="utf-8"?>
<!-- Generator: Adobe Illustrator 16.0.0, SVG Export Plug-In . SVG Version: 6.00 Build 0)  -->
<!DOCTYPE svg PUBLIC "-//W3C//DTD SVG 1.1//EN" "http://www.w3.org/Graphics/SVG/1.1/DTD/svg11.dtd">
<svg version="1.1" id="Layer_1" xmlns="http://www.w3.org/2000/svg" xmlns:xlink="http://www.w3.org/1999/xlink" x="0px" y="0px"
	 width="25px" height="22px" viewBox="0 0 25 22" enable-background="new 0 0 25 22" xml:space="preserve">
<path fill="#FFFFFF" d="M22.962,2.332c-0.876,0.522-1.85,0.9-2.885,1.104C19.249,2.553,18.067,2,16.761,2
	c-2.933,0-5.09,2.736-4.427,5.58C8.557,7.391,5.21,5.582,2.969,2.833C1.777,4.874,2.35,7.546,4.374,8.898
	C3.629,8.875,2.93,8.672,2.316,8.33c-0.05,2.106,1.459,4.074,3.644,4.515c-0.64,0.171-1.34,0.213-2.051,0.077
	c0.576,1.806,2.257,3.119,4.244,3.157c-1.912,1.495-4.318,2.164-6.728,1.88C3.438,19.25,5.825,20,8.392,20
	c8.436,0,13.203-7.126,12.916-13.516c0.889-0.642,1.656-1.443,2.267-2.355c-0.814,0.363-1.69,0.607-2.609,0.72
	C21.904,4.284,22.624,3.394,22.962,2.332z"/>
</svg>
