<svg xmlns="http://www.w3.org/2000/svg" width="25" height="22" viewBox="0 0 25 22"><path fill="#fff" d="M22.962 2.332c-.876.522-1.85.9-2.885 1.104C19.25 2.553 18.067 2 16.76 2c-2.932 0-5.09 2.736-4.426 5.58C8.557 7.39 5.21 5.582 2.97 2.833c-1.193 2.04-.62 4.713 1.404 6.065-.745-.023-1.444-.226-2.058-.568-.05 2.106 1.46 4.074 3.644 4.515-.64.17-1.34.213-2.05.077.575 1.806 2.256 3.12 4.243 3.157-1.912 1.494-4.318 2.163-6.728 1.88C3.438 19.25 5.825 20 8.392 20c8.436 0 13.203-7.126 12.916-13.516.89-.642 1.656-1.443 2.267-2.355-.814.362-1.69.606-2.61.72.94-.566 1.66-1.456 1.997-2.518z"/></svg>