<?xml version="1.0" encoding="utf-8"?>
<!-- Generator: Adobe Illustrator 16.0.0, SVG Export Plug-In . SVG Version: 6.00 Build 0)  -->
<!DOCTYPE svg PUBLIC "-//W3C//DTD SVG 1.1//EN" "http://www.w3.org/Graphics/SVG/1.1/DTD/svg11.dtd">
<svg version="1.1" id="Layer_1" xmlns="http://www.w3.org/2000/svg" xmlns:xlink="http://www.w3.org/1999/xlink" x="0px" y="0px"
	 width="25px" height="22px" viewBox="0 0 25 22" enable-background="new 0 0 25 22" xml:space="preserve">
<g>
	<path fill="#FFFFFF" d="M12.577,12.517c-2.043-1.519-2.541-2.378-0.592-3.913c1.098-0.867,1.868-2.02,1.868-3.445
		c0-1.554-0.623-2.962-1.793-3.648h1.659L15.133,0c0,0-5.327,0-6.325,0C4.861,0,2.927,2.412,2.927,5.066
		c0,2.711,1.824,4.844,5.387,4.844c-0.55,1.139-0.329,2.189,0.573,2.939c-6.084,0-7.387,2.722-7.387,4.821
		C1.5,20.387,4.564,22,8.237,22c5.022,0,7.019-2.713,7.019-4.941C15.256,15.24,14.591,14.054,12.577,12.517z M5.305,5.025
		C5.01,2.745,6.153,0.998,7.857,1.047c1.703,0.054,3.161,1.925,3.454,4.207c0.295,2.282-0.684,3.75-2.387,3.699
		C7.218,8.9,5.6,7.307,5.305,5.025z M8.254,20.795c-2.538,0-4.369-1.639-4.369-3.609c0-1.928,2.147-3.592,4.688-3.564
		c2.817,0,4.498,1.789,4.498,3.666C13.07,19.256,11.503,20.795,8.254,20.795z"/>
	<polygon fill="#FFFFFF" points="20.587,0.297 19.129,0.297 19.129,3.272 16.209,3.272 16.209,4.759 19.129,4.759 19.129,7.732 
		20.587,7.732 20.587,4.759 23.5,4.759 23.5,3.272 20.587,3.272 	"/>
</g>
</svg>
