<svg xmlns="http://www.w3.org/2000/svg" width="25" height="22" viewBox="0 0 25 22"><g fill="#fff"><path d="M12.577 12.517c-2.043-1.52-2.54-2.378-.592-3.913 1.098-.867 1.868-2.02 1.868-3.445 0-1.555-.623-2.963-1.793-3.65h1.66L15.132 0H8.808c-3.947 0-5.88 2.412-5.88 5.066 0 2.71 1.823 4.844 5.386 4.844-.55 1.14-.33 2.19.573 2.94-6.084 0-7.387 2.72-7.387 4.82C1.5 20.387 4.564 22 8.237 22c5.022 0 7.02-2.713 7.02-4.94 0-1.82-.666-3.006-2.68-4.543zM5.305 5.025c-.295-2.28.848-4.027 2.552-3.978 1.703.054 3.16 1.925 3.454 4.207.296 2.282-.683 3.75-2.386 3.7C7.218 8.9 5.6 7.306 5.304 5.023zm2.95 15.77c-2.54 0-4.37-1.64-4.37-3.61 0-1.927 2.147-3.59 4.688-3.563 2.817 0 4.498 1.79 4.498 3.666 0 1.968-1.567 3.507-4.816 3.507zM20.587.297H19.13v2.975h-2.92V4.76h2.92V7.73h1.457V4.76H23.5V3.27h-2.913z"/></g></svg>