<?xml version="1.0" encoding="utf-8"?>
<!-- Generator: Adobe Illustrator 16.0.0, SVG Export Plug-In . SVG Version: 6.00 Build 0)  -->
<!DOCTYPE svg PUBLIC "-//W3C//DTD SVG 1.1//EN" "http://www.w3.org/Graphics/SVG/1.1/DTD/svg11.dtd">
<svg version="1.1" id="Layer_1" xmlns="http://www.w3.org/2000/svg" xmlns:xlink="http://www.w3.org/1999/xlink" x="0px" y="0px"
	 width="25px" height="22px" viewBox="0 0 25 22" enable-background="new 0 0 25 22" xml:space="preserve">
<g>
	<path fill="#FFFFFF" d="M20.431,2.196c-3.746-0.261-12.109-0.261-15.859,0C1.938,2.38,0.612,2.853,0.221,6.279
		c-0.293,2.545-0.293,6.889,0,9.441c0.392,3.429,1.717,3.901,4.351,4.083c3.75,0.262,12.113,0.262,15.859,0
		c2.632-0.182,3.959-0.654,4.351-4.083c0.291-2.544,0.291-6.888,0-9.441C24.39,2.853,23.062,2.38,20.431,2.196z M10.012,14.583
		V7.427l6.688,3.579L10.012,14.583z"/>
</g>
</svg>
