<svg xmlns="http://www.w3.org/2000/svg" width="277.53" height="87.5"><g><path d="M207.362 41.56l8.26-8.26 8.264 8.26 8.263-8.26 8.263 8.26 8.263-8.26 8.26 8.26" stroke="#87db75" stroke-width="1.9775" stroke-linecap="round" stroke-linejoin="round" stroke-miterlimit="10" fill="none"/><path d="M207.362 36.184l8.26-8.26 8.264 8.26 8.263-8.26 8.263 8.26 8.263-8.26 8.26 8.26" stroke="#87db75" stroke-width="1.9775" stroke-linecap="round" stroke-linejoin="round" stroke-miterlimit="10" fill="none"/><path d="M207.362 30.805l8.26-8.26 8.264 8.26 8.263-8.26 8.263 8.26 8.263-8.26 8.26 8.26" stroke="#87db75" stroke-width="1.9775" stroke-linecap="round" stroke-linejoin="round" stroke-miterlimit="10" fill="none"/><path d="M207.362 25.43l8.26-8.262 8.264 8.26 8.263-8.26 8.263 8.26 8.263-8.26 8.26 8.26" stroke="#87db75" stroke-width="1.9775" stroke-linecap="round" stroke-linejoin="round" stroke-miterlimit="10" fill="none"/><path d="M208.975 61.2c-1.42 0-2.13.557-2.13 1.686 0 1.107.658 1.627 2.184 1.627.76 0 1.47-.067 2.08-.64.31-.294.468-.833.468-1.596V61.2h-2.603zm-206.373-58.044c-.712.714-1.37.938-2.548.938-1.25 0-1.927-.21-2.464-.764-.398-.398-.607-1.006-.607-1.63 0-1.526 1.093-2.41 2.912-2.41h2.708v-.935C2.603-2.98 1.96-3.69.24-3.69c-1.175 0-1.766.29-2.303 1.056l-.642-.555c.71-.988 1.58-1.283 2.946-1.283 2.224 0 3.246.99 3.246 2.74v5.722h-.884v-.834z" fill="#87db75"/><path d="M215.723 63.022v-10.18h.884v10.162c0 .955.295 1.404 1.28 1.404h.61v.78h-.765c-1.37 0-2.01-.847-2.01-2.166" fill="#87db75"/><path d="M220.733 56.834h.884v8.357h-.884v-8.356zm223.99 190.336h1.09v1.09h-1.09v-1.09z" fill="#87db75"/><path d="M227.288 61.2c-1.42 0-2.13.557-2.13 1.686 0 1.107.658 1.627 2.184 1.627.76 0 1.472-.067 2.08-.64.312-.294.47-.833.47-1.596V61.2h-2.604zm-224.686-58.044c-.71.714-1.37.938-2.548.938-1.25 0-1.927-.21-2.464-.764-.398-.398-.605-1.006-.605-1.63 0-1.526 1.09-2.41 2.91-2.41h2.707v-.935C2.602-2.98 1.96-3.69.244-3.69c-1.18 0-1.77.29-2.307 1.056l-.642-.555c.712-.988 1.58-1.283 2.95-1.283 2.22 0 3.24.99 3.24 2.74v5.722h-.883v-.834z" fill="#87db75"/><path d="M239.62 60.007c0-1.614-.8-2.498-2.308-2.498-1.508 0-2.357.9-2.357 2.497v5.183h-.884v-8.357h.885v.986c.625-.728 1.438-1.092 2.462-1.092.92 0 1.666.26 2.22.8.572.553.867 1.334.867 2.32v5.34h-.884v-5.18z" fill="#87db75"/><path d="M246.314 67.79h-1.094l1.25-2.6h.953l-1.11 2.6zm-245.67-70.285c-2.292 0-3.68-1.63-3.68-4.285 0-2.65 1.39-4.283 3.679-4.283 1.142 0 1.872.297 2.756 1.286l-.61.553c-.71-.8-1.264-1.057-2.148-1.057-.955 0-1.718.362-2.22 1.107-.417.608-.573 1.268-.573 2.393 0 1.13.155 1.787.572 2.395.502.745 1.265 1.11 2.22 1.11.884 0 1.438-.28 2.148-1.06l.61.556C2.514-2.79 1.784-2.494.64-2.494" fill="#87db75"/><path d="M254.55 61.2c-1.423 0-2.133.557-2.133 1.686 0 1.107.66 1.627 2.185 1.627.764 0 1.475-.067 2.083-.64.312-.294.466-.833.466-1.596V61.2h-2.6zm-251.95-58.044c-.71.714-1.37.938-2.55.938-1.246 0-1.922-.21-2.46-.764-.4-.398-.607-1.006-.607-1.63 0-1.526 1.093-2.41 2.912-2.41H2.6v-.935C2.6-2.98 1.96-3.69.244-3.69c-1.18 0-1.77.29-2.306 1.056l-.643-.555c.71-.988 1.578-1.283 2.95-1.283 2.22 0 3.24.99 3.24 2.74v5.722H2.6v-.834z" fill="#87db75"/><path d="M209.913 75.725c-2.046 0-2.36 1.767-2.36 3.5 0 1.736.314 3.505 2.36 3.505s2.36-1.77 2.36-3.504-.314-3.5-2.36-3.5m2.167 7.056c-.433.433-1.16.73-2.047.73-.953 0-1.734-.21-2.48-1.18v5.063h-.883V75.05h.884v1.073c.745-.972 1.526-1.18 2.48-1.18.885 0 1.613.296 2.046.73.848.848 1.075 2.237 1.075 3.553 0 1.318-.227 2.705-1.075 3.557" fill="#87db75"/><path d="M221.063 77.13c-.364-.885-1.196-1.405-2.167-1.405-.97 0-1.803.52-2.17 1.404-.19.537-.24.763-.292 1.577h4.924c-.05-.797-.067-1.075-.295-1.578m-1.906 5.583c.99 0 1.594-.296 2.306-1.006l.66.52c-.852.85-1.634 1.283-3.017 1.283-2.308 0-3.558-1.49-3.558-4.284 0-2.704 1.25-4.282 3.348-4.282s3.346 1.51 3.346 4.075v.4h-5.808c0 2.13.935 3.293 2.723 3.293" fill="#87db75"/><path d="M225.07 81.237v-10.18h.885V81.22c0 .954.292 1.406 1.28 1.406h.61v.778h-.765c-1.37 0-2.01-.848-2.01-2.167" fill="#87db75"/><path d="M232.388 79.42c-1.424 0-2.134.553-2.134 1.68 0 1.11.66 1.63 2.185 1.63.763 0 1.474-.07 2.08-.642.312-.294.468-.833.468-1.595V79.42h-2.6zm-229.788-76.266c-.71.71-1.37.937-2.55.937-1.246 0-1.922-.206-2.462-.762-.398-.398-.606-1.007-.606-1.63 0-1.524 1.092-2.41 2.913-2.41H2.6v-.935c0-1.337-.64-2.047-2.36-2.047-1.177 0-1.766.295-2.303 1.058l-.642-.555c.71-.99 1.578-1.285 2.946-1.285 2.22 0 3.246.99 3.246 2.74v5.72H2.6v-.83z" fill="#87db75"/><path d="M245.41 73.173l1.684-2.55h1.16l-1.834 2.55h-1.01zm-244.924-66.928c-1.42 0-2.13.554-2.13 1.683 0 1.108.658 1.628 2.184 1.628.76 0 1.47-.068 2.08-.642.313-.294.47-.833.47-1.595V6.244H.485zm2.506-8.086c-.712.71-1.37.936-2.55.936-1.25 0-1.925-.207-2.463-.765-.398-.396-.606-1.004-.606-1.627 0-1.525 1.09-2.412 2.913-2.412h2.705v-.934c0-1.336-.643-2.046-2.36-2.046-1.178 0-1.77.295-2.307 1.058l-.64-.555C-1.604-9.177-.738-9.47.632-9.47c2.219 0 3.242.988 3.242 2.738v5.723H2.99v-.83z" fill="#87db75"/><path d="M255.435 75.725c-2.046 0-2.356 1.767-2.356 3.5 0 1.736.31 3.505 2.355 3.505 2.046 0 2.36-1.77 2.36-3.504s-.314-3.5-2.36-3.5M255.26 87.5c-1.246 0-1.888-.33-2.755-1.11l.59-.59c.658.606 1.11.92 2.166.92 1.755 0 2.534-1.23 2.534-2.896V82.33c-.745.972-1.526 1.18-2.48 1.18-.885 0-1.613-.295-2.046-.728-.848-.85-1.076-2.238-1.076-3.556 0-1.316.228-2.705 1.075-3.552.434-.435 1.162-.73 2.048-.73.953 0 1.734.207 2.48 1.178V75.05h.885v8.825c0 2.096-1.25 3.625-3.42 3.625" fill="#87db75"/><path d="M267.488 82.417c-.625.73-1.44 1.094-2.464 1.094-.917 0-1.662-.26-2.22-.798-.57-.554-.865-1.335-.865-2.32v-5.344h.886v5.186c0 1.612.795 2.496 2.303 2.496s2.358-.902 2.358-2.496v-5.186h.884v8.358h-.884v-.99z" fill="#87db75"/><path d="M274.044 79.42c-1.42 0-2.13.553-2.13 1.68 0 1.11.657 1.63 2.184 1.63.76 0 1.472-.07 2.08-.642.312-.294.468-.833.468-1.595V79.42h-2.602zm-271.44-76.266c-.712.71-1.372.937-2.55.937-1.25 0-1.927-.206-2.464-.762-.398-.398-.605-1.007-.605-1.63 0-1.524 1.09-2.41 2.913-2.41h2.704v-.935c0-1.337-.642-2.047-2.358-2.047-1.18 0-1.77.295-2.306 1.058l-.643-.555c.712-.99 1.58-1.285 2.95-1.285 2.22 0 3.24.99 3.24 2.74v5.72h-.883v-.83z" fill="#87db75"/><path d="M15.13 9.726H9.78L12.43 0h9.08L15.13 9.726zm-14.483 11.563h-4.485c-1.728 0-2.81.97-2.81 2.324 0 1.296.974 2.43 2.92 2.43 1.728 0 2.54-.163 3.51-1.08.65-.597.865-1.514.865-2.92v-.755zM.605-43.68v-2.378c-1.78 1.783-3.405 2.65-6.484 2.65-2.917 0-5.348-.975-6.97-2.596-1.674-1.678-2.54-4.11-2.54-6.81 0-4.374 2.972-8.43 9.89-8.43H.517v-.754c0-2.65-1.297-3.62-4.375-3.62-2.27 0-3.242.54-4.65 1.943l-5.51-5.51c2.972-2.974 5.675-3.892 10.59-3.892 8.324 0 12.806 3.46 12.806 10.537v18.86H.733z" fill="#2c4f77"/><path d="M41.155 21.29c-3.242 0-3.46 2.81-3.46 5.78 0 2.974.217 5.784 3.46 5.784 3.242 0 3.458-2.81 3.458-5.784 0-2.97-.215-5.78-3.458-5.78m-.81 31.122c-4.54 0-7.945-.81-10.916-3.78l5.51-5.512c1.35 1.35 2.973 1.837 4.973 1.837 3.727 0 4.7-2.54 4.7-4.43v-2.11c-1.62 1.622-3.566 2.432-6.268 2.432-2.81 0-5.133-.92-6.81-2.594-2.646-2.648-2.7-5.89-2.7-11.186 0-5.295.054-8.537 2.7-11.184 1.677-1.677 4.054-2.595 6.864-2.595 2.973 0 4.7.92 6.483 2.704v-2.38h8.59V40.58c0 6.864-5.184 11.83-13.128 11.83" fill="#2c4f77"/><path d="M74.464 42.688V40.31c-1.782 1.782-4.43 2.7-6.753 2.7-2.755 0-4.972-.918-6.537-2.483-2.485-2.488-2.92-5.244-2.92-8.323V13.616h8.862v17.4c0 3.35 2.378 3.998 3.568 3.998 1.188 0 3.566-.648 3.566-3.998v-17.4h8.86v29.072h-8.646z" fill="#2c4f77"/><path d="M103.035 31.015H98.55c-1.73 0-2.81.97-2.81 2.324 0 1.295.97 2.43 2.917 2.43 1.73 0 2.54-.163 3.514-1.08.647-.596.865-1.514.865-2.92v-.755zm-102.82-19.343V9.296c-1.782 1.78-3.404 2.65-6.485 2.65-2.915 0-5.35-.976-6.97-2.596-1.675-1.68-2.54-4.11-2.54-6.81 0-4.376 2.973-8.43 9.89-8.43H0v-.755c0-2.65-1.296-3.62-4.377-3.62-2.27 0-3.243.54-4.647 1.942l-5.512-5.51c2.97-2.973 5.674-3.892 10.59-3.892 8.324 0 12.81 3.46 12.81 10.537v18.86H.213z" fill="#2c4f77"/><path d="M134.544 29.182c0-2.275-1.096-3.72-3.15-3.72-2.016 0-3.11 1.445-3.11 3.72 0 2.23 1.094 3.633 3.11 3.633 2.054 0 3.15-1.402 3.15-3.633m-18.69-.308c0-9.192 7.57-15.583 16.108-15.583 9.015 0 15.495 5.953 15.495 14.403 0 6.13-2.8 9.018-6.742 9.018-2.582 0-4.245-.876-5.165-2.713-1.226 1.97-2.89 2.626-5.166 2.626-3.72 0-6.74-3.15-6.74-7.44 0-4.335 3.02-7.53 6.74-7.53 2.146 0 3.328.788 4.116 1.968V22.05h4.422v8.884c0 1.707.698 2.364 1.88 2.364 1.447 0 2.802-1.707 2.802-5.515 0-7.092-4.55-10.942-11.775-10.942-7.005 0-11.776 4.944-11.776 12.036 0 7.093 4.77 12.04 12.387 12.04 2.148 0 4.335-.35 6.13-1.27l1.75 3.107c-2.187 1.27-4.86 1.71-7.746 1.71-9.63 0-16.72-6.394-16.72-15.586" fill="#2c4f77"/><path d="M160.51 43.01c-4.484 0-7.996-1.025-10.914-3.835l2.595-2.596c2.107 2.216 4.97 3.08 8.267 3.08 4.375 0 7.078-1.567 7.078-4.7 0-2.324-1.35-3.62-4.432-3.89l-4.377-.38c-5.185-.43-7.94-2.754-7.94-7.13 0-4.864 4.105-7.784 9.78-7.784 3.782 0 7.184.918 9.564 2.867l-2.542 2.536c-1.89-1.46-4.32-2.107-7.077-2.107-3.89 0-5.944 1.676-5.944 4.377 0 2.27 1.296 3.62 4.65 3.89l4.266.38c4.65.43 7.835 2.214 7.835 7.188 0 5.13-4.375 8.102-10.806 8.102" fill="#2c4f77"/><path d="M186.278 19.236c-5.78 0-6.7 4.97-6.7 10.16 0 5.186.92 10.158 6.7 10.158 5.784 0 6.647-4.972 6.647-10.16 0-5.187-.863-10.158-6.647-10.158m7.295 21.452c-1.404 1.404-3.78 2.323-6.485 2.323-2.918 0-5.35-.703-7.51-3.457v15.022h-3.89V16.1h3.89v3.136c2.16-2.81 4.592-3.46 7.51-3.46 2.704 0 5.08.92 6.485 2.325 2.702 2.703 3.242 7.135 3.242 11.295s-.54 8.59-3.242 11.293" fill="#2c4f77"/></g></svg>