<?xml version="1.0" encoding="utf-8"?>
<!-- Generator: Adobe Illustrator 16.0.0, SVG Export Plug-In . SVG Version: 6.00 Build 0)  -->
<!DOCTYPE svg PUBLIC "-//W3C//DTD SVG 1.1//EN" "http://www.w3.org/Graphics/SVG/1.1/DTD/svg11.dtd">
<svg version="1.1" id="Layer_1" xmlns="http://www.w3.org/2000/svg" xmlns:xlink="http://www.w3.org/1999/xlink" x="0px" y="0px"
	 width="500px" height="157.641px" viewBox="0 0 500 157.641" enable-background="new 0 0 500 157.641" xml:space="preserve">
<g>
	<g>
		<g>
			<g>
				
					<polyline fill="none" stroke="#87DB75" stroke-width="3.5632" stroke-linecap="round" stroke-linejoin="round" stroke-miterlimit="10" points="
					373.582,74.877 388.47,59.992 403.354,74.877 418.242,59.992 433.128,74.877 448.014,59.992 462.899,74.877 				"/>
			</g>
			<g>
				
					<polyline fill="none" stroke="#87DB75" stroke-width="3.5632" stroke-linecap="round" stroke-linejoin="round" stroke-miterlimit="10" points="
					373.582,65.191 388.47,50.305 403.354,65.191 418.242,50.305 433.128,65.191 448.014,50.305 462.899,65.191 				"/>
			</g>
			<g>
				
					<polyline fill="none" stroke="#87DB75" stroke-width="3.5632" stroke-linecap="round" stroke-linejoin="round" stroke-miterlimit="10" points="
					373.582,55.502 388.47,40.617 403.354,55.502 418.242,40.617 433.128,55.502 448.014,40.617 462.899,55.502 				"/>
			</g>
			<g>
				
					<polyline fill="none" stroke="#87DB75" stroke-width="3.5632" stroke-linecap="round" stroke-linejoin="round" stroke-miterlimit="10" points="
					373.582,45.816 388.47,30.93 403.354,45.816 418.242,30.93 433.128,45.816 448.014,30.93 462.899,45.816 				"/>
			</g>
		</g>
	</g>
	<g>
		<path fill="#87DB75" d="M381.178,115.95c-1.28,1.28-2.467,1.687-4.592,1.687c-2.249,0-3.468-0.376-4.437-1.375
			c-0.718-0.719-1.093-1.811-1.093-2.938c0-2.749,1.969-4.342,5.247-4.342h4.874v-1.688c0-2.405-1.155-3.686-4.249-3.686
			c-2.124,0-3.186,0.531-4.154,1.905l-1.155-0.999c1.28-1.781,2.843-2.312,5.31-2.312c4,0,5.844,1.781,5.844,4.937v10.31h-1.595
			V115.95z M376.493,110.264c-2.563,0-3.844,1-3.844,3.03c0,2,1.188,2.937,3.937,2.937c1.376,0,2.656-0.125,3.749-1.156
			c0.563-0.531,0.843-1.5,0.843-2.874v-1.937H376.493z"/>
		<path fill="#87DB75" d="M388.646,113.543V95.205h1.594v18.307c0,1.719,0.531,2.531,2.312,2.531h1.094v1.406h-1.376
			C389.802,117.449,388.646,115.918,388.646,113.543z"/>
		<path fill="#87DB75" d="M397.487,95.205h1.969v1.968h-1.969V95.205z M397.676,102.391h1.593v15.059h-1.593V102.391z"/>
		<path fill="#87DB75" d="M414.171,115.95c-1.28,1.28-2.467,1.687-4.592,1.687c-2.249,0-3.469-0.376-4.437-1.375
			c-0.717-0.719-1.093-1.811-1.093-2.938c0-2.749,1.967-4.342,5.247-4.342h4.874v-1.688c0-2.405-1.155-3.686-4.248-3.686
			c-2.125,0-3.187,0.531-4.154,1.905l-1.157-0.999c1.282-1.781,2.844-2.312,5.312-2.312c4,0,5.842,1.781,5.842,4.937v10.31h-1.594
			V115.95z M409.485,110.264c-2.562,0-3.842,1-3.842,3.03c0,2,1.187,2.937,3.936,2.937c1.374,0,2.654-0.125,3.75-1.156
			c0.562-0.531,0.842-1.5,0.842-2.874v-1.937H409.485z"/>
		<path fill="#87DB75" d="M431.7,108.108c0-2.905-1.438-4.499-4.156-4.499c-2.717,0-4.248,1.625-4.248,4.499v9.341h-1.593v-15.059
			h1.593v1.781c1.126-1.312,2.592-1.969,4.437-1.969c1.656,0,2.999,0.469,3.999,1.438c1.03,1,1.562,2.405,1.562,4.186v9.623H431.7
			V108.108z"/>
		<path fill="#87DB75" d="M444.917,117.637c-4.125,0-6.624-2.938-6.624-7.717s2.499-7.717,6.624-7.717
			c2.06,0,3.373,0.531,4.967,2.312l-1.094,0.999c-1.28-1.437-2.28-1.905-3.873-1.905c-1.719,0-3.094,0.656-3.999,2
			c-0.751,1.094-1.031,2.279-1.031,4.311s0.28,3.218,1.031,4.312c0.905,1.343,2.28,1.999,3.999,1.999c1.593,0,2.593-0.5,3.873-1.905
			l1.094,0.999C448.29,117.105,446.977,117.637,444.917,117.637z M443.761,122.135h-1.969l2.25-4.686h1.717L443.761,122.135z"/>
		<path fill="#87DB75" d="M463.287,115.95c-1.28,1.28-2.468,1.687-4.592,1.687c-2.249,0-3.468-0.376-4.437-1.375
			c-0.718-0.719-1.093-1.811-1.093-2.938c0-2.749,1.968-4.342,5.247-4.342h4.874v-1.688c0-2.405-1.155-3.686-4.247-3.686
			c-2.125,0-3.188,0.531-4.156,1.905l-1.156-0.999c1.281-1.781,2.844-2.312,5.312-2.312c3.998,0,5.841,1.781,5.841,4.937v10.31
			h-1.594V115.95z M458.602,110.264c-2.562,0-3.843,1-3.843,3.03c0,2,1.187,2.937,3.937,2.937c1.374,0,2.655-0.125,3.749-1.156
			c0.562-0.531,0.843-1.5,0.843-2.874v-1.937H458.602z"/>
		<path fill="#87DB75" d="M382.085,149.142c-0.782,0.78-2.094,1.313-3.688,1.313c-1.717,0-3.123-0.377-4.468-2.125v9.122h-1.593
			v-22.243h1.593v1.938c1.345-1.75,2.751-2.125,4.468-2.125c1.594,0,2.905,0.531,3.688,1.312c1.529,1.53,1.937,4.03,1.937,6.403
			C384.021,145.111,383.614,147.61,382.085,149.142z M378.18,136.427c-3.687,0-4.25,3.187-4.25,6.31c0,3.127,0.563,6.312,4.25,6.312
			c3.686,0,4.249-3.186,4.249-6.312C382.429,139.613,381.865,136.427,378.18,136.427z"/>
		<path fill="#87DB75" d="M394.832,149.016c1.78,0,2.875-0.529,4.156-1.811l1.187,0.937c-1.531,1.531-2.938,2.313-5.437,2.313
			c-4.155,0-6.405-2.688-6.405-7.719c0-4.873,2.25-7.715,6.031-7.715c3.779,0,6.029,2.717,6.029,7.34v0.72h-10.467
			C389.927,146.924,391.613,149.016,394.832,149.016z M398.269,138.957c-0.656-1.593-2.156-2.53-3.904-2.53
			c-1.75,0-3.25,0.938-3.906,2.53c-0.344,0.969-0.438,1.375-0.531,2.844h8.873C398.706,140.363,398.675,139.863,398.269,138.957z"/>
		<path fill="#87DB75" d="M405.488,146.361v-18.338h1.593v18.307c0,1.719,0.531,2.531,2.312,2.531h1.094v1.405h-1.376
			C406.644,150.267,405.488,148.736,405.488,146.361z"/>
		<path fill="#87DB75" d="M423.357,148.768c-1.281,1.279-2.469,1.688-4.593,1.688c-2.248,0-3.468-0.377-4.437-1.376
			c-0.718-0.718-1.092-1.812-1.092-2.937c0-2.75,1.967-4.342,5.248-4.342h4.873v-1.688c0-2.406-1.155-3.687-4.248-3.687
			c-2.125,0-3.188,0.531-4.155,1.905l-1.157-0.999c1.282-1.78,2.845-2.312,5.312-2.312c3.998,0,5.842,1.78,5.842,4.936v10.31h-1.594
			V148.768z M418.671,143.081c-2.562,0-3.843,0.999-3.843,3.03c0,2,1.187,2.938,3.937,2.938c1.375,0,2.655-0.125,3.749-1.156
			c0.562-0.531,0.844-1.5,0.844-2.875v-1.937H418.671z"/>
		<path fill="#87DB75" d="M447.696,148.768c-1.28,1.279-2.467,1.688-4.592,1.688c-2.249,0-3.469-0.377-4.437-1.376
			c-0.717-0.718-1.093-1.812-1.093-2.937c0-2.75,1.967-4.342,5.247-4.342h4.874v-1.688c0-2.406-1.155-3.687-4.248-3.687
			c-2.125,0-3.188,0.531-4.154,1.905l-1.157-0.999c1.282-1.78,2.844-2.312,5.312-2.312c3.998,0,5.842,1.78,5.842,4.936v10.31h-1.594
			V148.768z M443.01,143.081c-2.561,0-3.841,0.999-3.841,3.03c0,2,1.187,2.938,3.936,2.938c1.374,0,2.654-0.125,3.75-1.156
			c0.561-0.531,0.842-1.5,0.842-2.875v-1.937H443.01z M442.136,131.834l3.03-4.592h2.093l-3.311,4.592H442.136z"/>
		<path fill="#87DB75" d="M459.883,157.641c-2.25,0-3.405-0.594-4.968-2l1.062-1.062c1.188,1.094,2,1.656,3.905,1.656
			c3.155,0,4.561-2.219,4.561-5.219v-2.686c-1.343,1.748-2.749,2.125-4.467,2.125c-1.593,0-2.905-0.533-3.687-1.313
			c-1.53-1.531-1.937-4.03-1.937-6.405c0-2.373,0.406-4.873,1.937-6.403c0.781-0.78,2.094-1.312,3.687-1.312
			c1.718,0,3.124,0.375,4.467,2.125v-1.938h1.594v15.9C466.037,154.891,463.788,157.641,459.883,157.641z M460.195,136.427
			c-3.687,0-4.248,3.187-4.248,6.31c0,3.127,0.562,6.312,4.248,6.312s4.248-3.186,4.248-6.312
			C464.443,139.613,463.882,136.427,460.195,136.427z"/>
		<path fill="#87DB75" d="M481.908,148.486c-1.124,1.312-2.593,1.969-4.436,1.969c-1.656,0-2.999-0.471-3.999-1.439
			c-1.03-0.998-1.562-2.404-1.562-4.184v-9.623h1.594v9.341c0,2.905,1.436,4.499,4.155,4.499c2.719,0,4.247-1.625,4.247-4.499
			v-9.341h1.594v15.058h-1.594V148.486z"/>
		<path fill="#87DB75" d="M498.406,148.768c-1.28,1.279-2.468,1.688-4.593,1.688c-2.248,0-3.467-0.377-4.436-1.376
			c-0.718-0.718-1.093-1.812-1.093-2.937c0-2.75,1.967-4.342,5.247-4.342h4.874v-1.688c0-2.406-1.155-3.687-4.249-3.687
			c-2.123,0-3.186,0.531-4.154,1.905l-1.156-0.999c1.281-1.78,2.844-2.312,5.311-2.312c4,0,5.843,1.78,5.843,4.936v10.31h-1.594
			V148.768z M493.721,143.081c-2.562,0-3.843,0.999-3.843,3.03c0,2,1.187,2.938,3.936,2.938c1.375,0,2.656-0.125,3.75-1.156
			c0.562-0.531,0.843-1.5,0.843-2.875v-1.937H493.721z"/>
	</g>
	<g>
		<path fill="#FFFFFF" d="M28.814,76.907v-4.283c-3.212,3.212-6.133,4.771-11.682,4.771c-5.256,0-9.638-1.755-12.558-4.674
			C1.557,69.701,0,65.32,0,60.453c0-7.884,5.354-15.187,17.814-15.187h10.611v-1.361c0-4.771-2.336-6.522-7.885-6.522
			c-4.09,0-5.842,0.975-8.372,3.503l-9.931-9.93c5.355-5.354,10.223-7.009,19.08-7.009c14.994,0,23.073,6.232,23.073,18.983v33.977
			H28.814z M28.426,55.879h-8.08c-3.115,0-5.062,1.751-5.062,4.188c0,2.336,1.754,4.381,5.258,4.381
			c3.114,0,4.574-0.294,6.327-1.949c1.168-1.07,1.558-2.725,1.558-5.258V55.879z M27.258,17.522h-9.637L22.39,0h16.356
			L27.258,17.522z"/>
		<path fill="#FFFFFF" d="M72.685,94.429c-8.177,0-14.31-1.46-19.665-6.812l9.93-9.933c2.435,2.436,5.355,3.31,8.957,3.31
			c6.718,0,8.469-4.574,8.469-7.98v-3.797c-2.919,2.92-6.424,4.381-11.291,4.381c-5.063,0-9.248-1.656-12.268-4.674
			c-4.77-4.771-4.867-10.611-4.867-20.152c0-9.539,0.098-15.382,4.867-20.15c3.02-3.02,7.301-4.674,12.363-4.674
			c5.355,0,8.471,1.654,11.684,4.867v-4.283h15.478v48.578C96.341,85.475,86.996,94.429,72.685,94.429z M74.145,38.357
			c-5.84,0-6.229,5.061-6.229,10.414c0,5.355,0.39,10.418,6.229,10.418c5.842,0,6.23-5.062,6.23-10.418
			C80.375,43.418,79.986,38.357,74.145,38.357z"/>
		<path fill="#FFFFFF" d="M134.155,76.907v-4.283c-3.213,3.212-7.981,4.866-12.169,4.866c-4.965,0-8.956-1.654-11.777-4.477
			c-4.479-4.479-5.26-9.445-5.26-14.994V24.531h15.967v31.348c0,6.035,4.283,7.203,6.426,7.203c2.142,0,6.425-1.168,6.425-7.203
			V24.531h15.966v52.376H134.155z"/>
		<path fill="#FFFFFF" d="M186.018,76.907v-4.283c-3.213,3.212-6.134,4.771-11.682,4.771c-5.256,0-9.638-1.755-12.559-4.674
			c-3.019-3.02-4.575-7.4-4.575-12.268c0-7.884,5.354-15.187,17.814-15.187h10.612v-1.361c0-4.771-2.337-6.522-7.885-6.522
			c-4.091,0-5.843,0.975-8.373,3.503l-9.93-9.93c5.354-5.354,10.222-7.009,19.08-7.009c14.992,0,23.073,6.232,23.073,18.983v33.977
			H186.018z M185.629,55.879h-8.08c-3.116,0-5.062,1.751-5.062,4.188c0,2.336,1.752,4.381,5.258,4.381
			c3.113,0,4.574-0.294,6.326-1.949c1.168-1.07,1.559-2.725,1.559-5.258V55.879z"/>
		<path fill="#FFFFFF" d="M208.719,52.023c0-16.563,13.644-28.076,29.022-28.076c16.246,0,27.918,10.725,27.918,25.943
			c0,11.045-5.047,16.248-12.145,16.248c-4.653,0-7.65-1.578-9.307-4.89c-2.208,3.55-5.205,4.732-9.306,4.732
			c-6.703,0-12.146-5.678-12.146-13.407c0-7.807,5.442-13.564,12.146-13.564c3.864,0,5.993,1.42,7.413,3.549v-2.837h7.965v16.007
			c0,3.078,1.262,4.258,3.391,4.258c2.604,0,5.047-3.074,5.047-9.936c0-12.775-8.2-19.715-21.214-19.715
			c-12.617,0-21.215,8.91-21.215,21.688c0,12.775,8.598,21.686,22.319,21.686c3.864,0,7.807-0.629,11.042-2.287l3.153,5.6
			c-3.942,2.288-8.754,3.078-13.958,3.078C221.496,80.1,208.719,68.584,208.719,52.023z M242.394,52.574
			c0-4.1-1.972-6.704-5.677-6.704c-3.629,0-5.6,2.604-5.6,6.704c0,4.021,1.971,6.545,5.6,6.545
			C240.422,59.119,242.394,56.596,242.394,52.574z"/>
		<path fill="#FFFFFF" d="M289.177,77.49c-8.08,0-14.407-1.851-19.665-6.912l4.674-4.674c3.796,3.994,8.955,5.551,14.894,5.551
			c7.885,0,12.753-2.824,12.753-8.47c0-4.187-2.433-6.522-7.983-7.009l-7.885-0.682c-9.344-0.78-14.311-4.964-14.311-12.85
			c0-8.762,7.4-14.02,17.621-14.02c6.815,0,12.946,1.653,17.231,5.16l-4.576,4.574c-3.406-2.629-7.788-3.797-12.753-3.797
			c-7.009,0-10.708,3.02-10.708,7.887c0,4.088,2.336,6.521,8.372,7.01l7.69,0.682c8.372,0.777,14.115,3.99,14.115,12.947
			C308.646,72.137,300.762,77.49,289.177,77.49z"/>
		<path fill="#FFFFFF" d="M348.741,73.304c-2.529,2.532-6.812,4.187-11.681,4.187c-5.256,0-9.638-1.268-13.532-6.23v27.064h-7.008
			V29.01h7.008v5.647c3.895-5.065,8.276-6.231,13.532-6.231c4.868,0,9.151,1.653,11.681,4.187
			c4.868,4.867,5.843,12.851,5.843,20.347C354.584,60.453,353.609,68.437,348.741,73.304z M335.601,34.657
			c-10.417,0-12.072,8.954-12.072,18.302c0,9.346,1.655,18.301,12.072,18.301c10.416,0,11.975-8.955,11.975-18.301
			C347.575,43.611,346.017,34.657,335.601,34.657z"/>
	</g>
</g>
</svg>
