<?xml version="1.0" encoding="UTF-8" standalone="no"?>
<!-- Created with Inkscape (http://www.inkscape.org/) -->

<svg
   xmlns:dc="http://purl.org/dc/elements/1.1/"
   xmlns:cc="http://creativecommons.org/ns#"
   xmlns:rdf="http://www.w3.org/1999/02/22-rdf-syntax-ns#"
   xmlns:svg="http://www.w3.org/2000/svg"
   xmlns="http://www.w3.org/2000/svg"
   version="1.1"
   width="277.52988"
   height="87.499847"
   id="svg8056">
  <defs
     id="defs3" />
  <metadata
     id="metadata4">
    <rdf:RDF>
      <cc:Work
         rdf:about="">
        <dc:format>image/svg+xml</dc:format>
        <dc:type
           rdf:resource="http://purl.org/dc/dcmitype/StillImage" />
        <dc:title></dc:title>
      </cc:Work>
    </rdf:RDF>
  </metadata>
  <g
     transform="translate(-224.0922,-194.32654)"
     id="layer1">
    <g
       transform="matrix(1.25,0,0,-1.25,431.4537,235.88629)"
       id="g7247">
      <path
         d="M 0,0 6.609,6.609 13.219,0 19.83,6.609 26.441,0 33.051,6.609 39.66,0"
         id="path7249"
         style="fill:none;stroke:#87db75;stroke-width:1.58200002;stroke-linecap:round;stroke-linejoin:round;stroke-miterlimit:10;stroke-opacity:1;stroke-dasharray:none" />
    </g>
    <g
       transform="matrix(1.25,0,0,-1.25,431.4537,230.51029)"
       id="g7251">
      <path
         d="M 0,0 6.609,6.609 13.219,0 19.83,6.609 26.441,0 33.051,6.609 39.66,0"
         id="path7253"
         style="fill:none;stroke:#87db75;stroke-width:1.58200002;stroke-linecap:round;stroke-linejoin:round;stroke-miterlimit:10;stroke-opacity:1;stroke-dasharray:none" />
    </g>
    <g
       transform="matrix(1.25,0,0,-1.25,431.4537,225.13189)"
       id="g7255">
      <path
         d="M 0,0 6.609,6.609 13.219,0 19.83,6.609 26.441,0 33.051,6.609 39.66,0"
         id="path7257"
         style="fill:none;stroke:#87db75;stroke-width:1.58200002;stroke-linecap:round;stroke-linejoin:round;stroke-miterlimit:10;stroke-opacity:1;stroke-dasharray:none" />
    </g>
    <g
       transform="matrix(1.25,0,0,-1.25,431.4537,219.75589)"
       id="g7259">
      <path
         d="M 0,0 6.609,6.609 13.219,0 19.83,6.609 26.441,0 33.051,6.609 39.66,0"
         id="path7261"
         style="fill:none;stroke:#87db75;stroke-width:1.58200002;stroke-linecap:round;stroke-linejoin:round;stroke-miterlimit:10;stroke-opacity:1;stroke-dasharray:none" />
    </g>
    <g
       transform="matrix(1.25,0,0,-1.25,433.06745,255.52739)"
       id="g7263">
      <path
         d="m 0,0 c -1.137,0 -1.705,-0.445 -1.705,-1.348 0,-0.886 0.527,-1.302 1.748,-1.302 0.609,0 1.178,0.054 1.664,0.513 0.25,0.235 0.375,0.666 0.375,1.276 L 2.082,0 0,0 z m 2.082,-2.525 c -0.57,-0.571 -1.096,-0.75 -2.039,-0.75 -1,0 -1.541,0.168 -1.971,0.611 -0.318,0.318 -0.486,0.805 -0.486,1.305 0,1.22 0.875,1.927 2.33,1.927 l 2.166,0 0,0.748 c 0,1.069 -0.514,1.637 -1.889,1.637 -0.941,0 -1.414,-0.234 -1.843,-0.846 l -0.514,0.444 c 0.568,0.791 1.264,1.027 2.357,1.027 1.778,0 2.596,-0.791 2.596,-2.191 l 0,-4.578 -0.707,0 0,0.666 z"
         id="path7265"
         style="fill:#87db75;fill-opacity:1;fill-rule:nonzero;stroke:none" />
    </g>
    <g
       transform="matrix(1.25,0,0,-1.25,439.81545,257.34879)"
       id="g7267">
      <path
         d="m 0,0 0,8.143 0.707,0 0,-8.129 c 0,-0.764 0.236,-1.123 1.025,-1.123 l 0.487,0 0,-0.625 -0.612,0 C 0.512,-1.734 0,-1.055 0,0"
         id="path7269"
         style="fill:#87db75;fill-opacity:1;fill-rule:nonzero;stroke:none" />
    </g>
    <path
       d="m 444.82495,251.16014 0.88375,0 0,8.3575 -0.88375,0 0,-8.3575 z m -0.1025,-3.99 1.09125,0 0,1.09125 -1.09125,0 0,-1.09125 z"
       id="path7271"
       style="fill:#87db75;fill-opacity:1;fill-rule:nonzero;stroke:none" />
    <g
       transform="matrix(1.25,0,0,-1.25,451.38045,255.52739)"
       id="g7273">
      <path
         d="m 0,0 c -1.137,0 -1.705,-0.445 -1.705,-1.348 0,-0.886 0.527,-1.302 1.748,-1.302 0.609,0 1.178,0.054 1.664,0.513 0.25,0.235 0.375,0.666 0.375,1.276 L 2.082,0 0,0 z m 2.082,-2.525 c -0.568,-0.571 -1.096,-0.75 -2.039,-0.75 -1,0 -1.541,0.168 -1.971,0.611 -0.318,0.318 -0.484,0.805 -0.484,1.305 0,1.22 0.873,1.927 2.328,1.927 l 2.166,0 0,0.748 c 0,1.069 -0.514,1.637 -1.887,1.637 -0.943,0 -1.416,-0.234 -1.845,-0.846 l -0.514,0.444 c 0.57,0.791 1.264,1.027 2.359,1.027 1.776,0 2.594,-0.791 2.594,-2.191 l 0,-4.578 -0.707,0 0,0.666 z"
         id="path7275"
         style="fill:#87db75;fill-opacity:1;fill-rule:nonzero;stroke:none" />
    </g>
    <g
       transform="matrix(1.25,0,0,-1.25,463.71195,254.33349)"
       id="g7277">
      <path
         d="M 0,0 C 0,1.291 -0.639,1.998 -1.846,1.998 -3.053,1.998 -3.732,1.277 -3.732,0 l 0,-4.146 -0.707,0 0,6.685 0.707,0 0,-0.789 c 0.5,0.582 1.15,0.873 1.97,0.873 0.735,0 1.332,-0.207 1.776,-0.639 C 0.471,1.541 0.707,0.916 0.707,0.127 l 0,-4.273 L 0,-4.146 0,0 z"
         id="path7279"
         style="fill:#87db75;fill-opacity:1;fill-rule:nonzero;stroke:none" />
    </g>
    <g
       transform="matrix(1.25,0,0,-1.25,470.40632,262.11679)"
       id="g7281">
      <path
         d="m 0,0 -0.875,0 1,2.08 0.762,0 L 0,0 z m 0.514,1.996 c -1.832,0 -2.942,1.305 -2.942,3.428 0,2.121 1.11,3.426 2.942,3.426 0.914,0 1.498,-0.237 2.205,-1.028 L 2.232,7.379 C 1.664,8.018 1.221,8.225 0.514,8.225 -0.25,8.225 -0.861,7.934 -1.262,7.338 -1.596,6.852 -1.721,6.324 -1.721,5.424 c 0,-0.903 0.125,-1.43 0.459,-1.916 0.401,-0.596 1.012,-0.887 1.776,-0.887 0.707,0 1.15,0.223 1.718,0.846 L 2.719,3.023 C 2.012,2.232 1.428,1.996 0.514,1.996"
         id="path7283"
         style="fill:#87db75;fill-opacity:1;fill-rule:nonzero;stroke:none" />
    </g>
    <g
       transform="matrix(1.25,0,0,-1.25,478.64358,255.52739)"
       id="g7285">
      <path
         d="m 0,0 c -1.139,0 -1.707,-0.445 -1.707,-1.348 0,-0.886 0.527,-1.302 1.748,-1.302 0.611,0 1.18,0.054 1.666,0.513 0.25,0.235 0.373,0.666 0.373,1.276 L 2.08,0 0,0 z m 2.08,-2.525 c -0.568,-0.571 -1.096,-0.75 -2.039,-0.75 -0.998,0 -1.539,0.168 -1.969,0.611 -0.32,0.318 -0.486,0.805 -0.486,1.305 0,1.22 0.875,1.927 2.33,1.927 l 2.164,0 0,0.748 c 0,1.069 -0.512,1.637 -1.885,1.637 -0.943,0 -1.416,-0.234 -1.845,-0.846 l -0.514,0.444 c 0.568,0.791 1.262,1.027 2.359,1.027 1.776,0 2.594,-0.791 2.594,-2.191 l 0,-4.578 -0.709,0 0,0.666 z"
         id="path7287"
         style="fill:#87db75;fill-opacity:1;fill-rule:nonzero;stroke:none" />
    </g>
    <g
       transform="matrix(1.25,0,0,-1.25,434.00495,270.05139)"
       id="g7289">
      <path
         d="m 0,0 c -1.637,0 -1.887,-1.414 -1.887,-2.801 0,-1.388 0.25,-2.803 1.887,-2.803 1.637,0 1.887,1.415 1.887,2.803 C 1.887,-1.414 1.637,0 0,0 M 1.734,-5.646 C 1.387,-5.992 0.805,-6.229 0.096,-6.229 c -0.762,0 -1.387,0.167 -1.983,0.944 l 0,-4.051 -0.707,0 0,9.877 0.707,0 0,-0.859 c 0.596,0.777 1.221,0.943 1.983,0.943 0.709,0 1.291,-0.236 1.638,-0.584 0.678,-0.678 0.86,-1.789 0.86,-2.842 0,-1.054 -0.182,-2.164 -0.86,-2.845"
         id="path7291"
         style="fill:#87db75;fill-opacity:1;fill-rule:nonzero;stroke:none" />
    </g>
    <g
       transform="matrix(1.25,0,0,-1.25,445.15482,271.45509)"
       id="g7293">
      <path
         d="M 0,0 C -0.291,0.707 -0.957,1.123 -1.734,1.123 -2.51,1.123 -3.176,0.707 -3.469,0 -3.621,-0.43 -3.662,-0.611 -3.703,-1.262 l 3.939,0 C 0.195,-0.625 0.182,-0.402 0,0 m -1.525,-4.467 c 0.791,0 1.275,0.237 1.845,0.805 l 0.528,-0.416 c -0.682,-0.68 -1.307,-1.027 -2.414,-1.027 -1.846,0 -2.846,1.193 -2.846,3.427 0,2.164 1,3.426 2.678,3.426 1.679,0 2.677,-1.207 2.677,-3.26 l 0,-0.32 -4.646,0 c 0,-1.705 0.748,-2.635 2.178,-2.635"
         id="path7295"
         style="fill:#87db75;fill-opacity:1;fill-rule:nonzero;stroke:none" />
    </g>
    <g
       transform="matrix(1.25,0,0,-1.25,449.16357,275.56399)"
       id="g7297">
      <path
         d="m 0,0 0,8.143 0.707,0 0,-8.129 c 0,-0.764 0.234,-1.125 1.025,-1.125 l 0.487,0 0,-0.623 -0.612,0 C 0.512,-1.734 0,-1.055 0,0"
         id="path7299"
         style="fill:#87db75;fill-opacity:1;fill-rule:nonzero;stroke:none" />
    </g>
    <g
       transform="matrix(1.25,0,0,-1.25,456.48045,273.74509)"
       id="g7301">
      <path
         d="m 0,0 c -1.139,0 -1.707,-0.443 -1.707,-1.346 0,-0.886 0.527,-1.302 1.748,-1.302 0.611,0 1.18,0.054 1.664,0.513 0.25,0.235 0.375,0.666 0.375,1.276 L 2.08,0 0,0 z m 2.08,-2.523 c -0.568,-0.569 -1.096,-0.75 -2.039,-0.75 -0.998,0 -1.539,0.166 -1.971,0.611 -0.318,0.318 -0.484,0.805 -0.484,1.303 0,1.22 0.873,1.929 2.33,1.929 l 2.164,0 0,0.748 c 0,1.069 -0.512,1.637 -1.887,1.637 -0.943,0 -1.414,-0.236 -1.843,-0.846 l -0.514,0.444 c 0.568,0.791 1.262,1.027 2.357,1.027 1.776,0 2.596,-0.791 2.596,-2.191 l 0,-4.578 -0.709,0 0,0.666 z"
         id="path7303"
         style="fill:#87db75;fill-opacity:1;fill-rule:nonzero;stroke:none" />
    </g>
    <g
       transform="matrix(1.25,0,0,-1.25,469.50295,267.49999)"
       id="g7305">
      <path
         d="m 0,0 1.346,2.039 0.929,0 L 0.807,0 0,0 z m 0.389,-4.996 c -1.137,0 -1.705,-0.443 -1.705,-1.346 0,-0.887 0.527,-1.303 1.748,-1.303 0.609,0 1.177,0.055 1.664,0.514 0.25,0.235 0.375,0.666 0.375,1.276 l 0,0.859 -2.082,0 z M 2.471,-7.52 C 1.902,-8.088 1.375,-8.27 0.432,-8.27 c -1,0 -1.541,0.166 -1.971,0.612 -0.318,0.318 -0.484,0.804 -0.484,1.303 0,1.22 0.873,1.929 2.33,1.929 l 2.164,0 0,0.748 c 0,1.069 -0.514,1.637 -1.887,1.637 -0.943,0 -1.416,-0.236 -1.846,-0.846 l -0.513,0.444 c 0.57,0.791 1.263,1.027 2.359,1.027 1.775,0 2.594,-0.791 2.594,-2.191 l 0,-4.579 -0.707,0 0,0.666 z"
         id="path7307"
         style="fill:#87db75;fill-opacity:1;fill-rule:nonzero;stroke:none" />
    </g>
    <g
       transform="matrix(1.25,0,0,-1.25,479.52733,270.05139)"
       id="g7309">
      <path
         d="m 0,0 c -1.637,0 -1.885,-1.414 -1.885,-2.801 0,-1.388 0.248,-2.803 1.885,-2.803 1.637,0 1.887,1.415 1.887,2.803 C 1.887,-1.414 1.637,0 0,0 m -0.139,-9.42 c -0.998,0 -1.511,0.264 -2.205,0.889 l 0.471,0.472 c 0.527,-0.486 0.889,-0.736 1.734,-0.736 1.403,0 2.026,0.984 2.026,2.316 l 0,1.194 c -0.596,-0.777 -1.221,-0.944 -1.983,-0.944 -0.709,0 -1.291,0.237 -1.638,0.583 -0.678,0.681 -0.86,1.791 -0.86,2.845 0,1.053 0.182,2.164 0.86,2.842 0.347,0.348 0.929,0.584 1.638,0.584 0.762,0 1.387,-0.166 1.983,-0.943 l 0,0.859 0.709,0 0,-7.061 c 0,-1.677 -1,-2.9 -2.735,-2.9"
         id="path7311"
         style="fill:#87db75;fill-opacity:1;fill-rule:nonzero;stroke:none" />
    </g>
    <g
       transform="matrix(1.25,0,0,-1.25,491.58058,276.74329)"
       id="g7313">
      <path
         d="m 0,0 c -0.5,-0.584 -1.152,-0.875 -1.971,-0.875 -0.734,0 -1.33,0.209 -1.775,0.639 -0.457,0.443 -0.693,1.068 -0.693,1.857 l 0,4.274 0.709,0 0,-4.149 c 0,-1.289 0.636,-1.996 1.843,-1.996 C -0.68,-0.25 0,0.471 0,1.746 l 0,4.149 0.707,0 0,-6.686 L 0,-0.791 0,0 z"
         id="path7315"
         style="fill:#87db75;fill-opacity:1;fill-rule:nonzero;stroke:none" />
    </g>
    <g
       transform="matrix(1.25,0,0,-1.25,498.13583,273.74509)"
       id="g7317">
      <path
         d="m 0,0 c -1.137,0 -1.705,-0.443 -1.705,-1.346 0,-0.886 0.527,-1.302 1.748,-1.302 0.609,0 1.178,0.054 1.664,0.513 0.25,0.235 0.375,0.666 0.375,1.276 L 2.082,0 0,0 z m 2.082,-2.523 c -0.568,-0.569 -1.096,-0.75 -2.039,-0.75 -1,0 -1.541,0.166 -1.971,0.611 -0.318,0.318 -0.484,0.805 -0.484,1.303 0,1.22 0.873,1.929 2.33,1.929 l 2.164,0 0,0.748 c 0,1.069 -0.514,1.637 -1.887,1.637 -0.943,0 -1.416,-0.236 -1.845,-0.846 l -0.514,0.444 c 0.57,0.791 1.264,1.027 2.359,1.027 1.776,0 2.594,-0.791 2.594,-2.191 l 0,-4.578 -0.707,0 0,0.666 z"
         id="path7319"
         style="fill:#87db75;fill-opacity:1;fill-rule:nonzero;stroke:none" />
    </g>
    <g
       transform="matrix(1.25,0,0,-1.25,239.2222,204.05279)"
       id="g7321">
      <path
         d="m 0,0 -4.279,0 2.117,7.781 7.264,0 L 0,0 z m 0.518,-17.031 -3.588,0 c -1.383,0 -2.248,-0.778 -2.248,-1.86 0,-1.037 0.779,-1.945 2.336,-1.945 1.382,0 2.031,0.131 2.808,0.865 0.52,0.477 0.692,1.211 0.692,2.336 l 0,0.604 z m 0.173,-9.338 0,1.902 c -1.425,-1.426 -2.724,-2.119 -5.187,-2.119 -2.334,0 -4.279,0.779 -5.576,2.076 -1.34,1.342 -2.032,3.287 -2.032,5.448 0,3.499 2.377,6.744 7.911,6.744 l 4.711,0 0,0.603 c 0,2.119 -1.038,2.897 -3.5,2.897 -1.817,0 -2.594,-0.432 -3.719,-1.555 l -4.408,4.408 c 2.377,2.379 4.539,3.113 8.472,3.113 6.658,0 10.244,-2.767 10.244,-8.429 l 0,-15.088 -6.916,0 z"
         id="path7323"
         style="fill:#2c4f77;fill-opacity:1;fill-rule:nonzero;stroke:none" />
    </g>
    <g
       transform="matrix(1.25,0,0,-1.25,265.24757,215.61529)"
       id="g7325">
      <path
         d="m 0,0 c -2.594,0 -2.768,-2.248 -2.768,-4.625 0,-2.379 0.174,-4.627 2.768,-4.627 2.594,0 2.766,2.248 2.766,4.627 C 2.766,-2.248 2.594,0 0,0 m -0.648,-24.898 c -3.631,0 -6.356,0.648 -8.733,3.023 l 4.408,4.41 c 1.082,-1.08 2.379,-1.469 3.979,-1.469 2.982,0 3.76,2.032 3.76,3.543 l 0,1.688 c -1.295,-1.297 -2.852,-1.945 -5.014,-1.945 -2.248,0 -4.106,0.734 -5.447,2.074 -2.118,2.119 -2.16,4.713 -2.16,8.949 0,4.236 0.042,6.83 2.16,8.947 1.341,1.342 3.242,2.076 5.49,2.076 2.379,0 3.762,-0.734 5.187,-2.162 l 0,1.903 6.873,0 0,-21.571 c 0,-5.492 -4.148,-9.466 -10.503,-9.466"
         id="path7327"
         style="fill:#2c4f77;fill-opacity:1;fill-rule:nonzero;stroke:none" />
    </g>
    <g
       transform="matrix(1.25,0,0,-1.25,298.5557,237.01429)"
       id="g7329">
      <path
         d="m 0,0 0,1.902 c -1.426,-1.425 -3.543,-2.16 -5.402,-2.16 -2.205,0 -3.979,0.735 -5.231,1.987 -1.988,1.99 -2.336,4.195 -2.336,6.658 l 0,14.871 7.09,0 0,-13.92 c 0,-2.68 1.902,-3.199 2.854,-3.199 0.951,0 2.853,0.519 2.853,3.199 l 0,13.92 7.09,0 L 6.918,0 0,0 z"
         id="path7331"
         style="fill:#2c4f77;fill-opacity:1;fill-rule:nonzero;stroke:none" />
    </g>
    <g
       transform="matrix(1.25,0,0,-1.25,327.12745,225.34189)"
       id="g7333">
      <path
         d="m 0,0 -3.588,0 c -1.385,0 -2.248,-0.777 -2.248,-1.859 0,-1.037 0.777,-1.946 2.334,-1.946 1.383,0 2.031,0.131 2.811,0.866 C -0.174,-2.463 0,-1.729 0,-0.604 L 0,0 z m 0.172,-9.338 0,1.902 c -1.426,-1.425 -2.723,-2.119 -5.188,-2.119 -2.332,0 -4.279,0.78 -5.576,2.076 -1.34,1.342 -2.031,3.288 -2.031,5.448 0,3.5 2.377,6.744 7.91,6.744 l 4.713,0 0,0.603 c 0,2.12 -1.037,2.897 -3.502,2.897 -1.816,0 -2.594,-0.432 -3.717,-1.555 l -4.41,4.408 c 2.377,2.379 4.539,3.114 8.473,3.114 6.658,0 10.246,-2.768 10.246,-8.43 l 0,-15.088 -6.918,0 z"
         id="path7335"
         style="fill:#2c4f77;fill-opacity:1;fill-rule:nonzero;stroke:none" />
    </g>
    <g
       transform="matrix(1.25,0,0,-1.25,358.6362,223.50839)"
       id="g7337">
      <path
         d="M 0,0 C 0,1.82 -0.877,2.977 -2.521,2.977 -4.133,2.977 -5.008,1.82 -5.008,0 c 0,-1.785 0.875,-2.906 2.487,-2.906 C -0.877,-2.906 0,-1.785 0,0 m -14.953,0.246 c 0,7.354 6.057,12.467 12.887,12.467 7.212,0 12.396,-4.762 12.396,-11.522 0,-4.904 -2.24,-7.214 -5.393,-7.214 -2.066,0 -3.396,0.701 -4.132,2.171 -0.981,-1.576 -2.311,-2.101 -4.133,-2.101 -2.977,0 -5.393,2.521 -5.393,5.953 0,3.467 2.416,6.023 5.393,6.023 1.717,0 2.662,-0.63 3.293,-1.574 l 0,1.258 3.537,0 0,-7.107 c 0,-1.366 0.559,-1.891 1.504,-1.891 1.158,0 2.242,1.365 2.242,4.412 0,5.674 -3.641,8.754 -9.42,8.754 -5.603,0 -9.42,-3.955 -9.42,-9.629 0,-5.674 3.817,-9.631 9.91,-9.631 1.717,0 3.467,0.28 4.903,1.016 l 1.4,-2.486 c -1.75,-1.016 -3.887,-1.368 -6.197,-1.368 -7.705,0 -13.377,5.116 -13.377,12.469"
         id="path7339"
         style="fill:#2c4f77;fill-opacity:1;fill-rule:nonzero;stroke:none" />
    </g>
    <g
       transform="matrix(1.25,0,0,-1.25,384.60307,237.33649)"
       id="g7341">
      <path
         d="m 0,0 c -3.588,0 -6.398,0.82 -8.732,3.068 l 2.076,2.077 C -4.971,3.371 -2.68,2.68 -0.043,2.68 c 3.5,0 5.662,1.254 5.662,3.759 0,1.86 -1.08,2.897 -3.545,3.114 l -3.502,0.302 c -4.148,0.346 -6.353,2.204 -6.353,5.706 0,3.89 3.285,6.226 7.824,6.226 3.027,0 5.748,-0.734 7.652,-2.293 L 5.662,17.465 C 4.15,18.631 2.205,19.15 0,19.15 c -3.113,0 -4.756,-1.341 -4.756,-3.502 0,-1.816 1.037,-2.896 3.719,-3.113 L 2.377,12.232 C 6.096,11.887 8.645,10.461 8.645,6.482 8.645,2.377 5.145,0 0,0"
         id="path7343"
         style="fill:#2c4f77;fill-opacity:1;fill-rule:nonzero;stroke:none" />
    </g>
    <g
       transform="matrix(1.25,0,0,-1.25,410.3697,213.56209)"
       id="g7345">
      <path
         d="m 0,0 c -4.625,0 -5.359,-3.977 -5.359,-8.127 0,-4.15 0.734,-8.127 5.359,-8.127 4.627,0 5.318,3.977 5.318,8.127 C 5.318,-3.977 4.627,0 0,0 m 5.836,-17.162 c -1.123,-1.123 -3.025,-1.858 -5.188,-1.858 -2.334,0 -4.279,0.563 -6.007,2.766 l 0,-12.017 -3.112,0 0,30.779 3.112,0 0,-2.508 c 1.728,2.248 3.673,2.768 6.007,2.768 2.163,0 4.065,-0.735 5.188,-1.86 2.162,-2.162 2.594,-5.707 2.594,-9.035 0,-3.328 -0.432,-6.873 -2.594,-9.035"
         id="path7347"
         style="fill:#2c4f77;fill-opacity:1;fill-rule:nonzero;stroke:none" />
    </g>
  </g>
</svg>
