<?xml version="1.0" encoding="utf-8"?>
<!-- Generator: Adobe Illustrator 16.0.0, SVG Export Plug-In . SVG Version: 6.00 Build 0)  -->
<!DOCTYPE svg PUBLIC "-//W3C//DTD SVG 1.1//EN" "http://www.w3.org/Graphics/SVG/1.1/DTD/svg11.dtd">
<svg version="1.1" id="Layer_1" xmlns="http://www.w3.org/2000/svg" xmlns:xlink="http://www.w3.org/1999/xlink" x="0px" y="0px"
	 width="75px" height="39px" viewBox="0 0 75 39" enable-background="new 0 0 75 39" xml:space="preserve">
<g>
	<g>
		
			<polyline fill="none" stroke="#87DB75" stroke-width="2.371" stroke-linecap="round" stroke-linejoin="round" stroke-miterlimit="10" points="
			2.167,36.97 14.024,25.115 25.878,36.97 37.733,25.115 49.588,36.97 61.444,25.115 73.298,36.97 		"/>
	</g>
	<g>
		
			<polyline fill="none" stroke="#87DB75" stroke-width="2.371" stroke-linecap="round" stroke-linejoin="round" stroke-miterlimit="10" points="
			2.167,29.256 14.024,17.4 25.878,29.256 37.733,17.4 49.588,29.256 61.444,17.4 73.298,29.256 		"/>
	</g>
	<g>
		
			<polyline fill="none" stroke="#87DB75" stroke-width="2.371" stroke-linecap="round" stroke-linejoin="round" stroke-miterlimit="10" points="
			2.167,21.539 14.024,9.684 25.878,21.539 37.733,9.684 49.588,21.539 61.444,9.684 73.298,21.539 		"/>
	</g>
	<g>
		
			<polyline fill="none" stroke="#87DB75" stroke-width="2.371" stroke-linecap="round" stroke-linejoin="round" stroke-miterlimit="10" points="
			2.167,13.825 14.024,1.97 25.878,13.825 37.733,1.97 49.588,13.825 61.444,1.97 73.298,13.825 		"/>
	</g>
</g>
</svg>
