<svg xmlns="http://www.w3.org/2000/svg" width="500" height="157.641" viewBox="0 0 500 157.641"><path stroke="#87DB75" stroke-width="3.563" stroke-linecap="round" stroke-linejoin="round" stroke-miterlimit="10" fill="none" d="M373.582 74.877l14.888-14.885 14.884 14.885 14.888-14.885 14.886 14.885 14.886-14.885L462.9 74.877M373.582 65.19l14.888-14.885 14.884 14.886 14.888-14.885 14.886 14.886 14.886-14.885L462.9 65.19M373.582 55.502l14.888-14.885 14.884 14.885 14.888-14.885 14.886 14.885 14.886-14.885L462.9 55.502M373.582 45.816L388.47 30.93l14.884 14.886 14.888-14.886 14.886 14.886 14.886-14.886L462.9 45.816"/><g fill="#87DB75"><path d="M381.178 115.95c-1.28 1.28-2.467 1.687-4.592 1.687-2.25 0-3.468-.376-4.437-1.375-.72-.72-1.094-1.81-1.094-2.938 0-2.75 1.97-4.342 5.247-4.342h4.874v-1.688c0-2.405-1.155-3.686-4.25-3.686-2.123 0-3.185.53-4.153 1.905l-1.155-1c1.28-1.78 2.842-2.31 5.31-2.31 4 0 5.843 1.78 5.843 4.936v10.31h-1.595v-1.5zm-4.685-5.686c-2.563 0-3.844 1-3.844 3.03 0 2 1.187 2.937 3.936 2.937 1.376 0 2.656-.124 3.75-1.155.562-.53.842-1.5.842-2.874v-1.936h-4.685zM388.646 113.543V95.205h1.594v18.307c0 1.72.53 2.53 2.312 2.53h1.094v1.407h-1.376c-2.468 0-3.624-1.532-3.624-3.907zM397.487 95.205h1.97v1.968h-1.97v-1.968zm.19 7.186h1.592v15.06h-1.594v-15.06zM414.17 115.95c-1.28 1.28-2.466 1.687-4.59 1.687-2.25 0-3.47-.376-4.438-1.375-.717-.72-1.093-1.81-1.093-2.938 0-2.75 1.966-4.342 5.246-4.342h4.874v-1.688c0-2.405-1.155-3.686-4.248-3.686-2.125 0-3.187.53-4.154 1.905l-1.157-1c1.283-1.78 2.845-2.31 5.313-2.31 4 0 5.842 1.78 5.842 4.936v10.31h-1.594v-1.5zm-4.685-5.686c-2.562 0-3.842 1-3.842 3.03 0 2 1.187 2.937 3.936 2.937 1.373 0 2.653-.124 3.75-1.155.56-.53.84-1.5.84-2.874v-1.936h-4.685zM431.7 108.108c0-2.905-1.438-4.5-4.156-4.5-2.717 0-4.248 1.626-4.248 4.5v9.34h-1.593V102.39h1.593v1.78c1.126-1.31 2.592-1.968 4.437-1.968 1.656 0 3 .47 4 1.438 1.03 1 1.56 2.405 1.56 4.186v9.623H431.7v-9.342zM444.917 117.637c-4.125 0-6.624-2.938-6.624-7.717s2.5-7.717 6.624-7.717c2.06 0 3.373.53 4.967 2.312l-1.094 1c-1.28-1.438-2.28-1.906-3.873-1.906-1.72 0-3.094.655-4 2-.75 1.093-1.03 2.278-1.03 4.31s.28 3.218 1.03 4.312c.906 1.343 2.28 2 4 2 1.593 0 2.593-.5 3.873-1.906l1.094 1c-1.594 1.78-2.907 2.31-4.967 2.31zm-1.156 4.498h-1.968l2.25-4.686h1.717l-2 4.685zM463.287 115.95c-1.28 1.28-2.468 1.687-4.592 1.687-2.25 0-3.468-.376-4.437-1.375-.718-.72-1.093-1.81-1.093-2.938 0-2.75 1.968-4.342 5.247-4.342h4.874v-1.688c0-2.405-1.155-3.686-4.247-3.686-2.126 0-3.19.53-4.157 1.905l-1.156-1c1.28-1.78 2.844-2.31 5.312-2.31 3.997 0 5.84 1.78 5.84 4.936v10.31h-1.594v-1.5zm-4.685-5.686c-2.562 0-3.843 1-3.843 3.03 0 2 1.186 2.937 3.936 2.937 1.374 0 2.655-.124 3.75-1.155.56-.53.842-1.5.842-2.874v-1.936h-4.686zM382.085 149.142c-.782.78-2.094 1.313-3.688 1.313-1.717 0-3.123-.377-4.468-2.125v9.122h-1.594V135.21h1.593v1.937c1.344-1.75 2.75-2.125 4.467-2.125 1.594 0 2.905.53 3.688 1.312 1.53 1.53 1.937 4.03 1.937 6.403 0 2.374-.408 4.873-1.937 6.405zm-3.905-12.715c-3.687 0-4.25 3.187-4.25 6.31 0 3.127.563 6.312 4.25 6.312 3.686 0 4.25-3.187 4.25-6.313 0-3.124-.565-6.31-4.25-6.31zM394.832 149.016c1.78 0 2.875-.53 4.156-1.81l1.187.936c-1.53 1.53-2.938 2.313-5.437 2.313-4.155 0-6.405-2.688-6.405-7.72 0-4.872 2.25-7.714 6.03-7.714 3.78 0 6.03 2.718 6.03 7.34v.72h-10.467c0 3.844 1.687 5.936 4.906 5.936zm3.437-10.06c-.657-1.592-2.157-2.53-3.905-2.53-1.75 0-3.25.94-3.906 2.53-.345.97-.44 1.376-.532 2.845h8.873c-.094-1.437-.125-1.937-.53-2.843zM405.488 146.36v-18.337h1.593v18.307c0 1.72.532 2.53 2.313 2.53h1.094v1.406h-1.376c-2.466 0-3.622-1.53-3.622-3.905zM423.357 148.768c-1.28 1.28-2.47 1.688-4.593 1.688-2.248 0-3.468-.377-4.437-1.376-.718-.718-1.092-1.812-1.092-2.937 0-2.75 1.967-4.342 5.248-4.342h4.873v-1.687c0-2.406-1.155-3.687-4.248-3.687-2.125 0-3.188.53-4.155 1.905l-1.157-.998c1.282-1.78 2.845-2.312 5.312-2.312 3.998 0 5.842 1.78 5.842 4.936v10.31h-1.594v-1.498zm-4.686-5.687c-2.56 0-3.842 1-3.842 3.03 0 2 1.187 2.94 3.937 2.94 1.375 0 2.655-.126 3.75-1.157.56-.53.843-1.5.843-2.875v-1.937h-4.687zM447.696 148.768c-1.28 1.28-2.467 1.688-4.592 1.688-2.25 0-3.47-.377-4.437-1.376-.717-.718-1.093-1.812-1.093-2.937 0-2.75 1.967-4.342 5.247-4.342h4.875v-1.687c0-2.406-1.155-3.687-4.248-3.687-2.125 0-3.188.53-4.154 1.905l-1.157-.998c1.282-1.78 2.844-2.312 5.312-2.312 3.998 0 5.842 1.78 5.842 4.936v10.31h-1.594v-1.498zm-4.686-5.687c-2.56 0-3.84 1-3.84 3.03 0 2 1.186 2.94 3.935 2.94 1.374 0 2.654-.126 3.75-1.157.56-.53.842-1.5.842-2.875v-1.937h-4.687zm-.874-11.246l3.03-4.592h2.093l-3.312 4.592h-1.812zM459.883 157.64c-2.25 0-3.405-.593-4.968-2l1.062-1.06c1.188 1.093 2 1.655 3.905 1.655 3.155 0 4.56-2.22 4.56-5.22v-2.685c-1.342 1.748-2.748 2.125-4.466 2.125-1.593 0-2.905-.533-3.687-1.313-1.53-1.53-1.938-4.03-1.938-6.405 0-2.373.406-4.873 1.937-6.403.78-.78 2.093-1.312 3.686-1.312 1.718 0 3.124.375 4.467 2.125v-1.938h1.594v15.9c0 3.78-2.25 6.53-6.154 6.53zm.312-21.213c-3.687 0-4.248 3.187-4.248 6.31 0 3.127.562 6.312 4.248 6.312s4.248-3.187 4.248-6.313c0-3.124-.56-6.31-4.248-6.31zM481.908 148.486c-1.124 1.312-2.593 1.97-4.436 1.97-1.656 0-3-.472-4-1.44-1.03-.998-1.56-2.404-1.56-4.184v-9.623h1.593v9.34c0 2.905 1.436 4.5 4.155 4.5 2.72 0 4.247-1.626 4.247-4.5v-9.34h1.594v15.057h-1.593v-1.78zM498.406 148.768c-1.28 1.28-2.468 1.688-4.593 1.688-2.248 0-3.467-.377-4.436-1.376-.718-.718-1.093-1.812-1.093-2.937 0-2.75 1.967-4.342 5.247-4.342h4.875v-1.687c0-2.406-1.155-3.687-4.25-3.687-2.122 0-3.185.53-4.153 1.905l-1.156-.998c1.28-1.78 2.844-2.312 5.31-2.312 4 0 5.844 1.78 5.844 4.936v10.31h-1.594v-1.498zm-4.685-5.687c-2.56 0-3.842 1-3.842 3.03 0 2 1.187 2.94 3.936 2.94 1.375 0 2.656-.126 3.75-1.157.562-.53.843-1.5.843-2.875v-1.937h-4.686z"/></g><g fill="#fff"><path d="M28.814 76.907v-4.283c-3.212 3.212-6.133 4.77-11.682 4.77-5.256 0-9.638-1.754-12.558-4.673C1.557 69.7 0 65.32 0 60.454c0-7.884 5.354-15.187 17.814-15.187h10.61v-1.36c0-4.772-2.335-6.523-7.884-6.523-4.09 0-5.842.975-8.372 3.503l-9.93-9.93c5.354-5.354 10.222-7.01 19.08-7.01 14.993 0 23.072 6.233 23.072 18.984v33.977H28.814zm-.388-21.028h-8.08c-3.115 0-5.062 1.75-5.062 4.187 0 2.336 1.754 4.38 5.258 4.38 3.114 0 4.574-.293 6.327-1.948 1.167-1.07 1.557-2.726 1.557-5.26v-1.36zM27.258 17.52H17.62L22.39 0h16.356L27.258 17.522zM72.685 94.43c-8.177 0-14.31-1.46-19.665-6.813l9.93-9.933c2.435 2.436 5.355 3.31 8.957 3.31 6.718 0 8.47-4.574 8.47-7.98v-3.797c-2.92 2.92-6.425 4.38-11.292 4.38-5.063 0-9.248-1.655-12.268-4.673-4.77-4.77-4.867-10.61-4.867-20.152 0-9.54.098-15.382 4.867-20.15 3.02-3.02 7.3-4.674 12.363-4.674 5.355 0 8.47 1.654 11.684 4.867v-4.283h15.478V73.11c0 12.365-9.346 21.32-23.657 21.32zm1.46-56.073c-5.84 0-6.23 5.06-6.23 10.414 0 5.356.39 10.42 6.23 10.42 5.842 0 6.23-5.063 6.23-10.42 0-5.352-.39-10.413-6.23-10.413zM134.155 76.907v-4.283c-3.213 3.212-7.98 4.866-12.17 4.866-4.964 0-8.955-1.654-11.776-4.477-4.48-4.48-5.26-9.445-5.26-14.994V24.53h15.966v31.35c0 6.034 4.283 7.202 6.426 7.202 2.142 0 6.425-1.168 6.425-7.203V24.53h15.966v52.377h-15.578zM186.018 76.907v-4.283c-3.213 3.212-6.134 4.77-11.682 4.77-5.256 0-9.638-1.754-12.56-4.673-3.018-3.02-4.574-7.4-4.574-12.267 0-7.884 5.354-15.187 17.814-15.187h10.612v-1.36c0-4.772-2.337-6.523-7.885-6.523-4.09 0-5.843.975-8.373 3.503l-9.93-9.93c5.354-5.354 10.222-7.01 19.08-7.01 14.992 0 23.073 6.233 23.073 18.984v33.977h-15.575zm-.39-21.028h-8.08c-3.115 0-5.06 1.75-5.06 4.187 0 2.336 1.75 4.38 5.257 4.38 3.113 0 4.574-.293 6.326-1.948 1.17-1.07 1.56-2.726 1.56-5.26v-1.36zM208.72 52.023c0-16.563 13.643-28.076 29.02-28.076 16.247 0 27.92 10.725 27.92 25.943 0 11.045-5.048 16.248-12.146 16.248-4.653 0-7.65-1.578-9.307-4.89-2.208 3.55-5.205 4.732-9.306 4.732-6.702 0-12.145-5.678-12.145-13.407 0-7.807 5.442-13.564 12.146-13.564 3.865 0 5.994 1.42 7.414 3.548V39.72h7.965V55.73c0 3.078 1.26 4.258 3.39 4.258 2.604 0 5.047-3.074 5.047-9.936 0-12.775-8.2-19.715-21.214-19.715-12.617 0-21.215 8.91-21.215 21.688 0 12.775 8.598 21.686 22.32 21.686 3.863 0 7.806-.63 11.04-2.288l3.154 5.6c-3.942 2.288-8.754 3.078-13.958 3.078-17.348 0-30.125-11.516-30.125-28.077zm33.674.55c0-4.1-1.972-6.703-5.677-6.703-3.63 0-5.6 2.604-5.6 6.704 0 4.02 1.97 6.545 5.6 6.545 3.705 0 5.677-2.524 5.677-6.546zM289.177 77.49c-8.08 0-14.407-1.85-19.665-6.912l4.674-4.674c3.796 3.994 8.955 5.55 14.894 5.55 7.885 0 12.753-2.823 12.753-8.47 0-4.186-2.433-6.52-7.983-7.008l-7.885-.682c-9.344-.78-14.31-4.964-14.31-12.85 0-8.762 7.4-14.02 17.62-14.02 6.815 0 12.946 1.653 17.23 5.16l-4.575 4.574c-3.406-2.63-7.788-3.797-12.753-3.797-7.01 0-10.708 3.02-10.708 7.888 0 4.088 2.335 6.52 8.37 7.01l7.69.682c8.373.777 14.116 3.99 14.116 12.947 0 9.25-7.884 14.603-19.47 14.603zM348.74 73.304c-2.528 2.532-6.81 4.187-11.68 4.187-5.256 0-9.638-1.267-13.532-6.23v27.065h-7.008V29.01h7.008v5.647c3.895-5.065 8.276-6.23 13.532-6.23 4.868 0 9.15 1.652 11.68 4.186 4.87 4.867 5.844 12.85 5.844 20.347 0 7.493-.975 15.477-5.843 20.344zM335.6 34.657c-10.416 0-12.07 8.954-12.07 18.302 0 9.345 1.654 18.3 12.07 18.3 10.417 0 11.976-8.955 11.976-18.3 0-9.35-1.56-18.303-11.975-18.303z"/></g></svg>