<svg xmlns="http://www.w3.org/2000/svg" width="320.028" height="199.998" viewBox="0 0 320.028 199.998"><path fill="#fff" d="M20.027 7.064l6.47 6.47c.938.94 2.21 1.466 3.536 1.466s2.598-.527 3.536-1.464l6.463-6.464 6.464 6.464c.94.937 2.21 1.464 3.536 1.464s2.598-.527 3.536-1.465L60.03 7.07l6.464 6.465c.977.977 2.256 1.465 3.536 1.465 1.28 0 2.56-.488 3.535-1.464l6.465-6.464 6.464 6.464c.938.937 2.21 1.464 3.536 1.464s2.598-.527 3.536-1.464l6.464-6.464 6.464 6.464c.938.938 2.21 1.464 3.536 1.464s2.598-.527 3.536-1.465l6.463-6.464 6.465 6.465c.977.976 2.256 1.464 3.536 1.464 1.28 0 2.56-.49 3.536-1.465l6.465-6.464 6.465 6.465c.938.938 2.21 1.465 3.536 1.465s2.6-.527 3.537-1.464l6.464-6.464 6.465 6.464c.938.938 2.21 1.464 3.536 1.464s2.6-.527 3.537-1.465l6.463-6.464 6.464 6.465c.977.977 2.256 1.465 3.536 1.465 1.28 0 2.56-.488 3.535-1.464l6.465-6.464 6.463 6.464c.938.938 2.21 1.465 3.536 1.465s2.597-.526 3.534-1.463l6.465-6.464 6.464 6.464c.938.938 2.21 1.464 3.535 1.464s2.597-.526 3.535-1.464l6.463-6.464 6.465 6.464c.977.976 2.257 1.464 3.536 1.464s2.56-.488 3.534-1.464l6.466-6.464 6.463 6.464c.938.938 2.21 1.465 3.536 1.465s2.597-.526 3.534-1.463l6.465-6.464 6.464 6.464c.938.938 2.21 1.464 3.535 1.464s2.597-.526 3.535-1.464l6.463-6.464L312.958 20l-6.465 6.464c-1.953 1.953-1.953 5.12 0 7.07L312.957 40l-6.464 6.464c-.938.938-1.465 2.21-1.465 3.536s.527 2.598 1.465 3.536l6.464 6.462-6.464 6.464c-1.953 1.953-1.953 5.118 0 7.07L312.956 80l-6.464 6.462c-.938.938-1.465 2.21-1.465 3.536s.526 2.598 1.465 3.536l6.464 6.464-6.464 6.464c-1.953 1.953-1.953 5.12 0 7.07l6.464 6.465-6.464 6.464c-1.953 1.954-1.953 5.12 0 7.072l6.464 6.464-6.464 6.465c-1.953 1.953-1.953 5.12 0 7.07l6.464 6.466-6.464 6.465c-.938.94-1.465 2.21-1.465 3.536s.527 2.6 1.465 3.536l6.462 6.46L300 192.932l-6.47-6.472c-.976-.977-2.256-1.465-3.535-1.465s-2.56.488-3.535 1.464l-6.464 6.462-6.465-6.464c-.937-.938-2.208-1.465-3.534-1.465s-2.598.527-3.536 1.465l-6.463 6.464-6.466-6.465c-.976-.976-2.255-1.464-3.534-1.464s-2.56.488-3.536 1.465l-6.465 6.466-6.463-6.464c-.977-.977-2.256-1.465-3.536-1.465-1.28 0-2.56.488-3.535 1.464l-6.463 6.463-6.466-6.466c-.937-.938-2.208-1.464-3.534-1.464s-2.598.527-3.536 1.465l-6.463 6.464-6.464-6.464c-.938-.938-2.21-1.465-3.536-1.465s-2.598.527-3.536 1.465l-6.464 6.466-6.463-6.464c-.977-.977-2.256-1.465-3.536-1.465-1.28 0-2.56.488-3.535 1.464l-6.464 6.463-6.465-6.464c-.976-.977-2.256-1.465-3.535-1.465s-2.56.488-3.535 1.464l-6.465 6.463-6.464-6.464c-.976-.977-2.255-1.465-3.535-1.465-1.28 0-2.56.488-3.536 1.464l-6.466 6.463-6.465-6.464c-.976-.977-2.256-1.465-3.535-1.465s-2.56.488-3.535 1.464L100 192.922l-6.466-6.464c-.976-.977-2.256-1.465-3.535-1.465s-2.56.488-3.536 1.464L80 192.922l-6.465-6.464c-.976-.977-2.255-1.465-3.535-1.465-1.28 0-2.56.488-3.535 1.464L60 192.923l-6.465-6.466c-.938-.938-2.21-1.465-3.536-1.465s-2.6.526-3.537 1.465L40 192.922l-6.465-6.463c-.976-.977-2.255-1.465-3.535-1.465-1.28 0-2.56.488-3.535 1.464L20 192.925l-12.93-12.93 6.466-6.464c.938-.938 1.465-2.21 1.465-3.536s-.526-2.6-1.464-3.536l-6.464-6.462 6.464-6.465c1.953-1.952 1.953-5.118 0-7.07l-6.464-6.465 6.464-6.464c1.953-1.953 1.953-5.118 0-7.07l-6.465-6.467 6.464-6.463c1.953-1.953 1.953-5.118 0-7.07L7.07 99.997l6.465-6.464c.938-.938 1.464-2.21 1.464-3.536s-.528-2.598-1.466-3.536L7.072 80l6.465-6.466c1.952-1.953 1.952-5.118 0-7.07l-6.464-6.465 6.463-6.463C14.473 52.597 15 51.327 15 50c0-1.326-.527-2.598-1.464-3.536L7.072 40l6.465-6.464c1.953-1.953 1.953-5.12 0-7.07l-6.462-6.463 12.952-12.94m280-7.063l-9.998 10-10-10-10 10-10-10-10 10-10-10-10 10-10-10-10 10-10-10-10 10-10-10-10 10-10-10-10 10-9.998-10-10 10-10-10-10 10-10-10-10 10-10-10-10 10-10-10-10 10-10-10-10 10-9.998-10-.01.01V0L0 20l10 10L0 40l10 10-10 9.998 10 10L0 80l10 9.998-10 10 10 10-10 9.998 10 10.002-10 10 10 10-10 10 10 9.998-10 10 20 20 10-9.998 10 9.998 10-10 9.998 10.002 10.002-10 10 9.998 10-9.998 10 9.998 9.998-9.998 10 9.998 10-9.998 10 9.998 10-9.998 10 9.998 10-9.998 9.998 10 10-10.002 10 10 10-10 10 10 10-9.998 10 10 10-10.002 10 10 10-10 10 10 10-9.998 9.998 10 .012-.012v.01l20.022-20-10-9.998 10-10-10-10 10-10-10-10 10-10-10-10 10-10-10-10 10-9.998-10-10.002 10-10-10-9.998 10-10-10-10 10-10-20-20z"/></svg>