<?xml version="1.0" encoding="utf-8"?>
<!-- Generator: Adobe Illustrator 16.0.0, SVG Export Plug-In . SVG Version: 6.00 Build 0)  -->
<!DOCTYPE svg PUBLIC "-//W3C//DTD SVG 1.1//EN" "http://www.w3.org/Graphics/SVG/1.1/DTD/svg11.dtd">
<svg version="1.1" id="Layer_1" xmlns="http://www.w3.org/2000/svg" xmlns:xlink="http://www.w3.org/1999/xlink" x="0px" y="0px"
	 width="40.699px" height="50px" viewBox="0 0 40.699 50" enable-background="new 0 0 40.699 50" xml:space="preserve">
<path id="pdf-file-3-icon_2_" fill="#2C4F77" d="M19.761,26.613c-0.263-0.76-0.485-1.996-0.337-2.766
	c0.164-0.844,0.701-0.791,0.851-0.064C20.423,24.51,20.055,25.994,19.761,26.613z M12.618,39.162
	c-0.776,0.855-0.265,1.527,0.673,0.609c0.46-0.451,1.021-1.285,1.417-2.066C14.048,38.037,13.12,38.611,12.618,39.162z
	 M18.602,34.236c0.856-0.283,2.703-0.713,3.164-0.822c-0.049-0.053-1.376-1.418-1.812-2.172
	C19.604,32.119,18.628,34.186,18.602,34.236z M28.457,0.037v12.197h12.195L28.457,0.037z M28.453,34.576
	c-0.521-0.076-1.271-0.078-2.163-0.006c0.614,0.414,1.455,0.846,2.377,0.861C29.742,35.453,29.648,34.752,28.453,34.576z
	 M40.699,16.479V50H0V0h24.21v16.479H40.699z M28.723,32.74c-1.371-0.203-3.316,0.023-4.688,0.242
	c-1.001-0.851-2.259-2.135-3.216-3.84c0.659-1.701,1.084-3.05,1.26-4.009c0.928-5.006-5.159-5.406-4.509-0.029
	c0.173,1.43,0.58,2.822,1.211,4.141c-0.748,1.85-1.699,3.934-2.654,5.824c-2.114,0.799-3.643,1.637-4.544,2.488
	c-3.161,2.981,0.77,6.942,3.751,2.646c0.713-1.029,1.516-2.492,2.113-3.644c1.87-0.66,4.044-1.235,6.078-1.61
	c1.328,1.016,3.449,2.336,5.144,2.336C31.904,37.287,32.366,33.275,28.723,32.74z"/>
</svg>
