<svg xmlns="http://www.w3.org/2000/svg" width="40.699" height="50" viewBox="0 0 40.699 50"><path fill="#fff" d="M19.76 26.613c-.262-.76-.484-1.996-.336-2.766.164-.844.7-.79.85-.064.15.727-.22 2.21-.513 2.83zm-7.142 12.55c-.776.854-.265 1.526.673.608.46-.45 1.022-1.284 1.418-2.065-.66.332-1.588.906-2.09 1.457zm5.984-4.927c.856-.283 2.702-.713 3.164-.822-.05-.053-1.377-1.418-1.813-2.172-.35.877-1.325 2.944-1.35 2.994zm9.855-34.2v12.198h12.195L28.457.037zm-.004 34.54c-.522-.076-1.272-.078-2.163-.006.614.414 1.455.846 2.377.86 1.075.023.982-.678-.214-.854zM40.7 16.48V50H0V0h24.21v16.48H40.7zM28.72 32.74c-1.37-.203-3.316.023-4.688.242-1-.85-2.26-2.135-3.216-3.84.66-1.7 1.084-3.05 1.26-4.008.928-5.006-5.16-5.406-4.51-.03.174 1.43.58 2.823 1.212 4.142-.748 1.85-1.7 3.934-2.654 5.824-2.114.8-3.643 1.637-4.544 2.488-3.16 2.982.77 6.943 3.75 2.646.714-1.03 1.517-2.492 2.114-3.643 1.87-.66 4.044-1.235 6.077-1.61 1.328 1.016 3.45 2.336 5.144 2.336 3.237 0 3.7-4.01.055-4.546z"/></svg>