<?xml version="1.0" encoding="utf-8"?>
<!-- Generator: Adobe Illustrator 16.0.0, SVG Export Plug-In . SVG Version: 6.00 Build 0)  -->
<!DOCTYPE svg PUBLIC "-//W3C//DTD SVG 1.1//EN" "http://www.w3.org/Graphics/SVG/1.1/DTD/svg11.dtd">
<svg version="1.1" id="Layer_1" xmlns="http://www.w3.org/2000/svg" xmlns:xlink="http://www.w3.org/1999/xlink" x="0px" y="0px"
	 width="320.028px" height="199.998px" viewBox="0 0 320.028 199.998" enable-background="new 0 0 320.028 199.998"
	 xml:space="preserve">
<g>
	<path fill="#FFFFFF" d="M20.027,7.064l6.471,6.471C27.435,14.473,28.707,15,30.033,15s2.598-0.527,3.536-1.464l6.464-6.464
		l6.464,6.464C47.436,14.473,48.707,15,50.033,15s2.598-0.527,3.536-1.465l6.463-6.464l6.464,6.464
		C67.473,14.512,68.752,15,70.032,15c1.279,0,2.559-0.488,3.535-1.464l6.465-6.464l6.464,6.464C87.434,14.473,88.706,15,90.032,15
		s2.598-0.527,3.536-1.464l6.464-6.464l6.464,6.464c0.938,0.938,2.209,1.464,3.536,1.464s2.598-0.527,3.536-1.465l6.463-6.464
		l6.464,6.464c0.977,0.976,2.256,1.464,3.536,1.464c1.279,0,2.559-0.488,3.535-1.464l6.465-6.464l6.464,6.464
		c0.938,0.938,2.209,1.465,3.536,1.465s2.598-0.527,3.536-1.464l6.464-6.464l6.464,6.464c0.938,0.938,2.209,1.464,3.536,1.464
		s2.598-0.527,3.536-1.465l6.463-6.464l6.464,6.464C187.471,14.512,188.75,15,190.03,15c1.279,0,2.559-0.488,3.535-1.464
		l6.465-6.464l6.463,6.464c0.938,0.938,2.21,1.465,3.536,1.465s2.598-0.527,3.535-1.464l6.465-6.464l6.465,6.464
		c0.938,0.938,2.209,1.464,3.535,1.464s2.598-0.527,3.536-1.465l6.463-6.464l6.465,6.464C247.47,14.512,248.75,15,250.029,15
		s2.56-0.488,3.535-1.464l6.466-6.464l6.463,6.464c0.938,0.938,2.21,1.465,3.536,1.465s2.598-0.527,3.535-1.464l6.465-6.464
		l6.465,6.464c0.938,0.938,2.209,1.464,3.535,1.464s2.598-0.527,3.536-1.465l6.463-6.464L312.957,20l-6.464,6.464
		c-1.953,1.953-1.953,5.119,0,7.071L312.957,40l-6.464,6.464c-0.938,0.938-1.465,2.21-1.465,3.536s0.527,2.598,1.465,3.536
		l6.464,6.462l-6.464,6.464c-1.953,1.953-1.953,5.118-0.001,7.071L312.957,80l-6.464,6.462c-0.938,0.938-1.465,2.209-1.465,3.536
		s0.526,2.598,1.465,3.536l6.464,6.464l-6.464,6.464c-1.953,1.953-1.953,5.119,0,7.071l6.464,6.464l-6.464,6.464
		c-1.953,1.953-1.953,5.119,0,7.071l6.464,6.464l-6.464,6.465c-1.953,1.952-1.953,5.118,0,7.07l6.464,6.465l-6.464,6.465
		c-0.938,0.938-1.465,2.209-1.465,3.535s0.527,2.599,1.465,3.536l6.462,6.46l-12.954,12.939l-6.471-6.471
		c-0.976-0.977-2.256-1.465-3.535-1.465s-2.56,0.488-3.535,1.464l-6.464,6.463l-6.465-6.464c-0.938-0.938-2.209-1.465-3.535-1.465
		s-2.598,0.527-3.536,1.465l-6.463,6.464l-6.466-6.465c-0.977-0.976-2.256-1.464-3.535-1.464s-2.56,0.488-3.536,1.465l-6.465,6.466
		l-6.463-6.464c-0.977-0.977-2.256-1.465-3.536-1.465c-1.279,0-2.56,0.488-3.535,1.464l-6.464,6.464l-6.466-6.466
		c-0.938-0.938-2.209-1.464-3.535-1.464s-2.598,0.527-3.536,1.465l-6.463,6.464l-6.464-6.464c-0.938-0.938-2.209-1.465-3.536-1.465
		s-2.598,0.527-3.536,1.465l-6.465,6.466l-6.463-6.464c-0.977-0.977-2.256-1.465-3.536-1.465c-1.279,0-2.559,0.488-3.535,1.464
		l-6.464,6.464l-6.465-6.464c-0.976-0.976-2.256-1.464-3.535-1.464s-2.559,0.488-3.535,1.464l-6.465,6.464l-6.464-6.464
		c-0.976-0.976-2.255-1.464-3.535-1.464c-1.279,0-2.559,0.488-3.535,1.464l-6.466,6.464l-6.465-6.464
		c-0.976-0.976-2.256-1.464-3.535-1.464s-2.559,0.488-3.535,1.464l-6.464,6.464l-6.465-6.464c-0.976-0.976-2.256-1.464-3.535-1.464
		s-2.559,0.488-3.535,1.464l-6.465,6.464l-6.464-6.464c-0.976-0.976-2.255-1.464-3.535-1.464c-1.279,0-2.559,0.488-3.535,1.464
		l-6.466,6.465l-6.464-6.466c-0.938-0.938-2.209-1.465-3.536-1.465s-2.598,0.526-3.536,1.465l-6.464,6.464l-6.464-6.463
		c-0.976-0.976-2.255-1.464-3.535-1.464c-1.279,0-2.559,0.488-3.535,1.464L20,192.926l-12.929-12.93l6.465-6.464
		c0.938-0.938,1.465-2.21,1.465-3.536s-0.527-2.599-1.465-3.536l-6.464-6.462l6.464-6.465c1.953-1.952,1.953-5.118,0-7.07
		l-6.464-6.465l6.464-6.464c1.953-1.953,1.953-5.118,0-7.071l-6.465-6.466l6.463-6.463c1.953-1.953,1.953-5.118,0-7.071
		l-6.464-6.465l6.465-6.464c0.938-0.938,1.464-2.21,1.464-3.536s-0.527-2.598-1.465-3.536L7.072,80l6.465-6.466
		c1.952-1.953,1.952-5.118,0-7.071l-6.464-6.464l6.463-6.462C14.473,52.598,15,51.326,15,50c0-1.326-0.527-2.598-1.464-3.536
		L7.072,40l6.465-6.464c1.953-1.953,1.953-5.119,0-7.071l-6.462-6.462L20.027,7.064 M300.028,0l-9.999,10l-10-10l-10,10L260.03,0
		l-10.001,10l-10-10l-9.999,10l-10-10l-10,10l-9.999-10L190.03,10l-10-10l-9.999,10l-10-10l-10,10l-9.999-10l-10.001,10l-10-10
		l-9.999,10l-10-10l-10,10L80.033,0L70.032,10l-10-10l-9.999,10l-10-10l-10,10L20.034,0l-0.011,0.01V0L0.001,20l10,10l-10,10L10,50
		l-9.999,9.998l10,10L0.001,80l10,9.998l-10,10l9.999,10l-9.999,9.998l10,10.002l-10,10l10,10l-10,10l10,9.998L0,179.996l20,20
		l10-9.998l9.999,9.998l10-10l9.999,10.002l10.002-10l9.999,9.998l10-9.998l10,9.998l9.999-9.998l10,9.998l10.001-9.998l9.999,9.998
		l10-9.998l10,9.998l9.999-9.998l9.999,10l10.001-10.002l10,10l9.999-10l10.001,10l9.999-9.998l9.999,10l10.001-10.002l10.001,10
		l9.999-10l10,10l9.999-9.998l9.999,10l0.012-0.012v0.01l20.022-20l-10-9.998l10-10l-10-10l10-10l-10-10l10-10l-10-10l10-10l-10-10
		l10-9.998l-10-10.002l10-10l-10-9.998l10-10l-10-10l10-10L300.028,0L300.028,0z"/>
</g>
</svg>
