<svg xmlns="http://www.w3.org/2000/svg" width="80" height="80" viewBox="0 0 80 80"><path fill="#87DB75" d="M70.004 30L80 20 60.008 0l-9.995 10-9.996-10-9.996 10-9.994-10-.01.01V0L0 20l9.997 10L0 40l9.996 10L0 59.998l19.99 20L29.99 70l9.995 9.998 9.996-10 .033.034v.002L59.973 80l.013-.012v.01l20.014-20L70.004 50 80 40l-9.996-10zM57.9 31.217C58.456 43.645 49.192 57.5 32.793 57.5c-4.988 0-9.63-1.46-13.54-3.97 4.685.552 9.364-.75 13.077-3.66-3.86-.07-7.128-2.625-8.248-6.136 1.38.266 2.744.187 3.987-.148-4.25-.856-7.18-4.685-7.084-8.777 1.19.66 2.552 1.058 3.998 1.104-3.933-2.63-5.045-7.826-2.73-11.797 4.355 5.347 10.86 8.865 18.203 9.23C39.17 27.82 43.362 22.5 49.06 22.5c2.54 0 4.837 1.07 6.448 2.79 2.013-.397 3.904-1.13 5.608-2.144-.658 2.064-2.06 3.793-3.882 4.89 1.785-.216 3.485-.69 5.07-1.394-1.184 1.773-2.678 3.33-4.405 4.575z"/></svg>