<?xml version="1.0" encoding="utf-8"?>
<!-- Generator: Adobe Illustrator 16.0.0, SVG Export Plug-In . SVG Version: 6.00 Build 0)  -->
<!DOCTYPE svg PUBLIC "-//W3C//DTD SVG 1.1//EN" "http://www.w3.org/Graphics/SVG/1.1/DTD/svg11.dtd">
<svg version="1.1" id="Layer_1" xmlns="http://www.w3.org/2000/svg" xmlns:xlink="http://www.w3.org/1999/xlink" x="0px" y="0px"
	 width="80px" height="80px" viewBox="0 0 80 80" enable-background="new 0 0 80 80" xml:space="preserve">
<g>
	<g>
		<path fill="#87DB75" d="M70.004,30L80,20L60.008,0l-9.995,10L40.017,0l-9.996,10L20.026,0l-0.011,0.01V0L0.001,20l9.996,10
			L0.001,40l9.995,10H9.996L0,59.998l19.991,20L29.988,70l9.995,9.998l9.996-10l0.034,0.034v0.002L59.974,80l0.012-0.012v0.01
			l20.014-20L70.004,50L80,40L70.004,30z M57.899,31.217C58.457,43.645,49.193,57.5,32.794,57.5c-4.988,0-9.629-1.461-13.54-3.97
			c4.685,0.552,9.364-0.749,13.077-3.659c-3.862-0.072-7.129-2.626-8.249-6.137c1.381,0.266,2.744,0.187,3.987-0.148
			c-4.248-0.856-7.179-4.685-7.083-8.777c1.19,0.661,2.552,1.059,3.998,1.105c-3.933-2.631-5.045-7.826-2.729-11.797
			c4.354,5.347,10.86,8.865,18.202,9.229C39.17,27.822,43.362,22.5,49.061,22.5c2.538,0,4.836,1.071,6.447,2.789
			c2.013-0.396,3.904-1.13,5.608-2.143c-0.658,2.064-2.059,3.793-3.882,4.889c1.785-0.215,3.485-0.69,5.071-1.393
			C61.12,28.415,59.626,29.972,57.899,31.217z"/>
	</g>
</g>
</svg>
